<?xml version="1.0" encoding="UTF-8"?>
<svg width="630px" height="146px" viewBox="0 0 630 146" version="1.1" xmlns="http://www.w3.org/2000/svg" xmlns:xlink="http://www.w3.org/1999/xlink">
    <!-- Generator: Sketch 49.3 (51167) - http://www.bohemiancoding.com/sketch -->
    <title>Slice</title>
    <desc>Created with Sketch.</desc>
    <defs>
        <circle id="path-1" cx="6.5" cy="6.5" r="6.5"></circle>
        <polygon id="path-2" points="0 0 19 0 19 34 0 34"></polygon>
        <polygon id="path-4" points="0 0 19 0 19 34 0 34"></polygon>
    </defs>
    <g id="Page-1" stroke="none" stroke-width="1" fill="none" fill-rule="evenodd">
        <g id="Group-19">
            <rect id="Rectangle-6-Copy-5" fill="#FFFFFF" x="0" y="0" width="630" height="145"></rect>
            <rect id="Rectangle-2-Copy-3" fill="#E6E6E6" x="0" y="128" width="630" height="18"></rect>
            <g id="add-copy-3" transform="translate(268.000000, 86.000000)">
                <g id="Oval-Copy-3">
                    <use fill="#FFCB00" fill-rule="evenodd" xlink:href="#path-1"></use>
                    <circle stroke="#FFFFFF" stroke-width="6" cx="6.5" cy="6.5" r="9.5"></circle>
                </g>
                <path d="M9,5.98881789 C9,5.94089433 8.98269453,5.90095863 8.94808307,5.86900958 C8.91347161,5.83706054 8.87486709,5.82108626 8.83226837,5.82108626 L7.17891374,5.82108626 L7.17891374,4.16773163 C7.17891374,4.12513291 7.16293946,4.08652839 7.13099042,4.05191693 C7.09904137,4.01730547 7.05910567,4 7.01118211,4 L5.98881789,4 C5.94089433,4 5.90095863,4.01730547 5.86900958,4.05191693 C5.83706054,4.08652839 5.82108626,4.12513291 5.82108626,4.16773163 L5.82108626,5.82108626 L4.16773163,5.82108626 C4.12513291,5.82108626 4.08652839,5.83706054 4.05191693,5.86900958 C4.01730547,5.90095863 4,5.94089433 4,5.98881789 L4,7.01118211 C4,7.05910567 4.01730547,7.09904137 4.05191693,7.13099042 C4.08652839,7.16293946 4.12513291,7.17891374 4.16773163,7.17891374 L5.82108626,7.17891374 L5.82108626,8.83226837 C5.82108626,8.87486709 5.83706054,8.91347161 5.86900958,8.94808307 C5.90095863,8.98269453 5.94089433,9 5.98881789,9 L7.01118211,9 C7.05910567,9 7.09904137,8.98269453 7.13099042,8.94808307 C7.16293946,8.91347161 7.17891374,8.87486709 7.17891374,8.83226837 L7.17891374,7.17891374 L8.83226837,7.17891374 C8.87486709,7.17891374 8.91347161,7.16293946 8.94808307,7.13099042 C8.98269453,7.09904137 9,7.05910567 9,7.01118211 L9,5.98881789 Z" id="e03e-add-copy-3" fill="#00355F"></path>
            </g>
            <path d="M0,129 C205.73126,97 415.73126,97 630,129" id="Path-3-Copy-3" stroke="#979797" fill="#E6E6E6"></path>
            <g id="Page-1-Copy-5" transform="translate(207.000000, 121.000000)" stroke="#9B9B9B">
                <path d="M5.034575,2.6249125 C5.034575,3.8332875 4.05545,4.8124125 2.847075,4.8124125 C1.6387,4.8124125 0.659575,3.8332875 0.659575,2.6249125 C0.659575,1.4165375 1.6387,0.4374125 2.847075,0.4374125 C4.05545,0.4374125 5.034575,1.4165375 5.034575,2.6249125 Z" id="Stroke-3" fill="#FFFFFF"></path>
                <polygon id="Stroke-7" fill="#FFFFFF" points="0.4375 12.2500875 5.25 12.2500875 5.25 5.5414625 0.4375 5.5414625"></polygon>
                <path d="M0.440825,12.2388 L0.440825,15.3013" id="Stroke-9"></path>
                <path d="M5.2567375,12.2388 L5.2567375,15.3013" id="Stroke-12"></path>
            </g>
            <g id="Page-1-Copy-6" transform="translate(26.000000, 115.000000)" stroke="#9B9B9B">
                <path d="M5.034575,2.6249125 C5.034575,3.8332875 4.05545,4.8124125 2.847075,4.8124125 C1.6387,4.8124125 0.659575,3.8332875 0.659575,2.6249125 C0.659575,1.4165375 1.6387,0.4374125 2.847075,0.4374125 C4.05545,0.4374125 5.034575,1.4165375 5.034575,2.6249125 Z" id="Stroke-3" fill="#FFFFFF"></path>
                <polygon id="Stroke-7" fill="#FFFFFF" points="0.4375 12.2500875 5.25 12.2500875 5.25 5.5414625 0.4375 5.5414625"></polygon>
                <path d="M0.440825,12.2388 L0.440825,15.3013" id="Stroke-9"></path>
                <path d="M5.2567375,12.2388 L5.2567375,15.3013" id="Stroke-12"></path>
            </g>
            <g id="Page-1-Copy-7" transform="translate(118.000000, 103.000000)" stroke="#9B9B9B">
                <path d="M3.596125,1.80462734 C3.596125,2.63538516 2.89675,3.30853359 2.033625,3.30853359 C1.1705,3.30853359 0.471125,2.63538516 0.471125,1.80462734 C0.471125,0.973869531 1.1705,0.300721094 2.033625,0.300721094 C2.89675,0.300721094 3.596125,0.973869531 3.596125,1.80462734 Z" id="Stroke-3" fill="#FFFFFF"></path>
                <polygon id="Stroke-7" fill="#FFFFFF" points="0.3125 8.42193516 3.75 8.42193516 3.75 3.80975547 0.3125 3.80975547"></polygon>
                <path d="M0.314875,8.414175 L0.314875,10.5196438" id="Stroke-9"></path>
                <path d="M3.7548125,8.414175 L3.7548125,10.5196438" id="Stroke-12"></path>
            </g>
            <polygon id="Fill-43-Copy-2" stroke="#979797" fill="#FFFFFF" points="318 123 400 123 400 82 318 82"></polygon>
            <polygon id="Fill-46-Copy-2" fill="#FFFFFF" points="225 129 325 129 325 105 225 105"></polygon>
            <polygon id="Stroke-47-Copy-2" stroke="#0D67B5" points="225 129 325 129 325 105 225 105"></polygon>
            <polygon id="Fill-48-Copy-2" fill="#FFFFFF" points="222 105 328 105 328 102 222 102"></polygon>
            <polygon id="Stroke-49-Copy-2" stroke="#0D67B5" points="222 105 328 105 328 102 222 102"></polygon>
            <polygon id="Stroke-50-Copy-2" stroke="#0D67B5" points="233 122 255 122 255 110 233 110"></polygon>
            <polygon id="Stroke-51-Copy-2" stroke="#0D67B5" points="286 122 298 122 298 110 286 110"></polygon>
            <polygon id="Stroke-52-Copy-2" stroke="#0D67B5" points="303 122 315 122 315 110 303 110"></polygon>
            <polygon id="Fill-53-Copy-2" fill="#EDF7FF" points="262 129 276 129 276 117 262 117"></polygon>
            <path d="M269,129 L269,117" id="Stroke-55-Copy-2" stroke="#0D67B5"></path>
            <path d="M225,110 L229,110" id="Stroke-56-Copy-2" stroke="#0D67B5"></path>
            <path d="M320,118 L324,118" id="Stroke-57-Copy-2" stroke="#0D67B5"></path>
            <polygon id="Fill-58-Copy-2" fill="#FFFFFF" points="315 83 404 83 404 78 315 78"></polygon>
            <polygon id="Stroke-59-Copy-2" stroke="#C7C7C7" points="315 83 404 83 404 78 315 78"></polygon>
            <polygon id="Stroke-60-Copy-2" stroke="#C7C7C7" points="349 113 369 113 369 103 349 103"></polygon>
            <path d="M349,109 L369,109" id="Stroke-61-Copy-2" stroke="#C7C7C7"></path>
            <polygon id="Stroke-50-Copy-3" stroke="#0D67B5" points="262 129 276 129 276 117 262 117"></polygon>
            <polygon id="Fill-62-Copy-2" fill="#EDEDED" points="351 123 367 123 367 113 351 113"></polygon>
            <polygon id="Stroke-63-Copy-2" stroke="#C0C0C0" points="351 123 367 123 367 113 351 113"></polygon>
            <path d="M359,114 L359,124" id="Fill-64-Copy-2" fill="#EDF7FF"></path>
            <path d="M359,113 L359,123" id="Stroke-65-Copy-2" stroke="#C0C0C0"></path>
            <polygon id="Stroke-67-Copy-2" stroke="#C0C0C0" fill="#FFFFFF" points="400 123 416 123 416 100 400 100"></polygon>
            <polygon id="Fill-68-Copy-2" fill="#C7C7C7" points="403 105 404 105 404 104 403 104"></polygon>
            <path d="M403,106 L405,106 L405,104 L403,104 L403,106 Z M403.942507,105.057493 L404.057493,105.057493 L404.057493,104.942507 L403.942507,104.942507 L403.942507,105.057493 Z" id="Fill-69-Copy-2" fill="#C7C7C7"></path>
            <polygon id="Fill-70-Copy-2" fill="#C7C7C7" points="406 105 407 105 407 104 406 104"></polygon>
            <path d="M406,106 L408,106 L408,104 L406,104 L406,106 Z M406.942507,105.057493 L407.057493,105.057493 L407.057493,104.942507 L406.942507,104.942507 L406.942507,105.057493 Z" id="Fill-71-Copy-2" fill="#C7C7C7"></path>
            <polygon id="Fill-72-Copy-2" fill="#C7C7C7" points="403 108 404 108 404 107 403 107"></polygon>
            <path d="M403,108 L405,108 L405,106 L403,106 L403,108 Z M403.942507,107.057493 L404.057493,107.057493 L404.057493,106.942507 L403.942507,106.942507 L403.942507,107.057493 Z" id="Fill-73-Copy-2" fill="#C7C7C7"></path>
            <polygon id="Fill-74-Copy-2" fill="#C7C7C7" points="406 108 407 108 407 107 406 107"></polygon>
            <path d="M406,108 L408,108 L408,106 L406,106 L406,108 Z M406.942507,107.057493 L407.057493,107.057493 L407.057493,106.942507 L406.942507,106.942507 L406.942507,107.057493 Z" id="Fill-75-Copy-2" fill="#C7C7C7"></path>
            <polygon id="Fill-76-Copy-2" fill="#C7C7C7" points="403 110 404 110 404 109 403 109"></polygon>
            <path d="M403,111 L405,111 L405,109 L403,109 L403,111 Z M403.942507,110.058435 L404.057493,110.058435 L404.057493,109.94345 L403.942507,109.94345 L403.942507,110.058435 Z" id="Fill-77-Copy-2" fill="#C7C7C7"></path>
            <polygon id="Fill-78-Copy-2" fill="#C7C7C7" points="406 110 407 110 407 109 406 109"></polygon>
            <path d="M406,111 L408,111 L408,109 L406,109 L406,111 Z M406.942507,110.058435 L407.057493,110.058435 L407.057493,109.94345 L406.942507,109.94345 L406.942507,110.058435 Z" id="Fill-79-Copy-2" fill="#C7C7C7"></path>
            <polygon id="Fill-80-Copy-2" fill="#C7C7C7" points="403 113 404 113 404 112 403 112"></polygon>
            <path d="M403,114 L405,114 L405,112 L403,112 L403,114 Z M403.942507,113.057493 L404.057493,113.057493 L404.057493,112.942507 L403.942507,112.942507 L403.942507,113.057493 Z" id="Fill-81-Copy-2" fill="#C7C7C7"></path>
            <polygon id="Fill-82-Copy-2" fill="#C7C7C7" points="406 113 407 113 407 112 406 112"></polygon>
            <path d="M406,114 L408,114 L408,112 L406,112 L406,114 Z M406.942507,113.057493 L407.057493,113.057493 L407.057493,112.942507 L406.942507,112.942507 L406.942507,113.057493 Z" id="Fill-83-Copy-2" fill="#C7C7C7"></path>
            <polygon id="Fill-84-Copy-2" fill="#C7C7C7" points="403 116 404 116 404 115 403 115"></polygon>
            <path d="M403,117 L405,117 L405,115 L403,115 L403,117 Z M403.942507,116.057493 L404.057493,116.057493 L404.057493,115.942507 L403.942507,115.942507 L403.942507,116.057493 Z" id="Fill-85-Copy-2" fill="#C7C7C7"></path>
            <polygon id="Fill-86-Copy-2" fill="#C7C7C7" points="406 116 407 116 407 115 406 115"></polygon>
            <path d="M406,117 L408,117 L408,115 L406,115 L406,117 Z M406.942507,116.057493 L407.057493,116.057493 L407.057493,115.942507 L406.942507,115.942507 L406.942507,116.057493 Z" id="Fill-87-Copy-2" fill="#C7C7C7"></path>
            <polygon id="Fill-88-Copy-2" fill="#C7C7C7" points="403 119 404 119 404 118 403 118"></polygon>
            <path d="M403,119 L405,119 L405,117 L403,117 L403,119 Z M403.942507,118.057493 L404.057493,118.057493 L404.057493,117.942507 L403.942507,117.942507 L403.942507,118.057493 Z" id="Fill-89-Copy-2" fill="#C7C7C7"></path>
            <polygon id="Fill-90-Copy-2" fill="#C7C7C7" points="406 119 407 119 407 118 406 118"></polygon>
            <path d="M406,119 L408,119 L408,117 L406,117 L406,119 Z M406.942507,118.057493 L407.057493,118.057493 L407.057493,117.942507 L406.942507,117.942507 L406.942507,118.057493 Z" id="Fill-91-Copy-2" fill="#C7C7C7"></path>
            <polygon id="Fill-92-Copy-3" fill="#C7C7C7" points="410 105 411 105 411 104 410 104"></polygon>
            <path d="M409,106 L411,106 L411,104 L409,104 L409,106 Z M409.942507,105.057493 L410.057493,105.057493 L410.057493,104.942507 L409.942507,104.942507 L409.942507,105.057493 Z" id="Fill-93-Copy-2" fill="#C7C7C7"></path>
            <polygon id="Fill-94-Copy-2" fill="#C7C7C7" points="413 105 414 105 414 104 413 104"></polygon>
            <path d="M412,106 L414,106 L414,104 L412,104 L412,106 Z M412.942507,105.057493 L413.057493,105.057493 L413.057493,104.942507 L412.942507,104.942507 L412.942507,105.057493 Z" id="Fill-95-Copy-2" fill="#C7C7C7"></path>
            <polygon id="Fill-96-Copy-2" fill="#C7C7C7" points="410 108 411 108 411 107 410 107"></polygon>
            <path d="M409,108 L411,108 L411,106 L409,106 L409,108 Z M409.942507,107.057493 L410.057493,107.057493 L410.057493,106.942507 L409.942507,106.942507 L409.942507,107.057493 Z" id="Fill-97-Copy-2" fill="#C7C7C7"></path>
            <polygon id="Fill-98-Copy-2" fill="#C7C7C7" points="413 108 414 108 414 107 413 107"></polygon>
            <path d="M412,108 L414,108 L414,106 L412,106 L412,108 Z M412.942507,107.057493 L413.057493,107.057493 L413.057493,106.942507 L412.942507,106.942507 L412.942507,107.057493 Z" id="Fill-99-Copy-2" fill="#C7C7C7"></path>
            <polygon id="Fill-100-Copy-2" fill="#C7C7C7" points="410 110 411 110 411 109 410 109"></polygon>
            <path d="M409,111 L411,111 L411,109 L409,109 L409,111 Z M409.942507,110.058435 L410.057493,110.058435 L410.057493,109.94345 L409.942507,109.94345 L409.942507,110.058435 Z" id="Fill-101-Copy-2" fill="#C7C7C7"></path>
            <polygon id="Fill-102-Copy-2" fill="#C7C7C7" points="413 110 414 110 414 109 413 109"></polygon>
            <path d="M412,111 L414,111 L414,109 L412,109 L412,111 Z M412.942507,110.058435 L413.057493,110.058435 L413.057493,109.94345 L412.942507,109.94345 L412.942507,110.058435 Z" id="Fill-103-Copy-2" fill="#C7C7C7"></path>
            <polygon id="Fill-104-Copy-2" fill="#C7C7C7" points="410 113 411 113 411 112 410 112"></polygon>
            <path d="M409,114 L411,114 L411,112 L409,112 L409,114 Z M409.942507,113.057493 L410.057493,113.057493 L410.057493,112.942507 L409.942507,112.942507 L409.942507,113.057493 Z" id="Fill-105-Copy-2" fill="#C7C7C7"></path>
            <polygon id="Fill-106-Copy-2" fill="#C7C7C7" points="413 113 414 113 414 112 413 112"></polygon>
            <path d="M412,114 L414,114 L414,112 L412,112 L412,114 Z M412.942507,113.057493 L413.057493,113.057493 L413.057493,112.942507 L412.942507,112.942507 L412.942507,113.057493 Z" id="Fill-107-Copy-2" fill="#C7C7C7"></path>
            <polygon id="Fill-108-Copy-2" fill="#C7C7C7" points="410 116 411 116 411 115 410 115"></polygon>
            <path d="M409,117 L411,117 L411,115 L409,115 L409,117 Z M409.942507,116.057493 L410.057493,116.057493 L410.057493,115.942507 L409.942507,115.942507 L409.942507,116.057493 Z" id="Fill-109-Copy-2" fill="#C7C7C7"></path>
            <polygon id="Fill-110-Copy-2" fill="#C7C7C7" points="413 116 414 116 414 115 413 115"></polygon>
            <path d="M412,117 L414,117 L414,115 L412,115 L412,117 Z M412.942507,116.057493 L413.057493,116.057493 L413.057493,115.942507 L412.942507,115.942507 L412.942507,116.057493 Z" id="Fill-111-Copy-2" fill="#C7C7C7"></path>
            <polygon id="Fill-112-Copy-2" fill="#C7C7C7" points="410 119 411 119 411 118 410 118"></polygon>
            <path d="M409,119 L411,119 L411,117 L409,117 L409,119 Z M409.942507,118.057493 L410.057493,118.057493 L410.057493,117.942507 L409.942507,117.942507 L409.942507,118.057493 Z" id="Fill-113-Copy-2" fill="#C7C7C7"></path>
            <polygon id="Fill-114-Copy-2" fill="#C7C7C7" points="413 119 414 119 414 118 413 118"></polygon>
            <path d="M412,119 L414,119 L414,117 L412,117 L412,119 Z M412.942507,118.057493 L413.057493,118.057493 L413.057493,117.942507 L412.942507,117.942507 L412.942507,118.057493 Z" id="Fill-115-Copy-2" fill="#C7C7C7"></path>
            <path d="M344,103.5 C344,104.881253 342.880412,106 341.499656,106 C340.1189,106 339,104.881253 339,103.5 C339,102.119434 340.1189,101 341.499656,101 C342.880412,101 344,102.119434 344,103.5 Z" id="Stroke-116-Copy-2" stroke="#C0C0C0" fill="#FFFFFF"></path>
            <path d="M342,107 L342,111" id="Stroke-117-Copy-2" stroke="#C0C0C0"></path>
            <path d="M379,103.5 C379,104.881253 377.8811,106 376.499656,106 C375.1189,106 374,104.881253 374,103.5 C374,102.119434 375.1189,101 376.499656,101 C377.8811,101 379,102.119434 379,103.5 Z" id="Stroke-118-Copy-2" stroke="#C0C0C0" fill="#FFFFFF"></path>
            <path d="M376,107 L376,111" id="Stroke-119-Copy-2" stroke="#C0C0C0"></path>
            <path d="M386,92 L386,96" id="Stroke-120-Copy-2" stroke="#C7C7C7"></path>
            <path d="M373,92 L373,96" id="Stroke-121-Copy-2" stroke="#C7C7C7"></path>
            <path d="M360,92 L360,96" id="Stroke-122-Copy-2" stroke="#C7C7C7"></path>
            <path d="M348,92 L348,96" id="Stroke-123-Copy-2" stroke="#C7C7C7"></path>
            <path d="M335,92 L335,96" id="Stroke-124-Copy-2" stroke="#C7C7C7"></path>
            <polygon id="Fill-125-Copy-2" fill="#C3E3FE" points="226 108 324 108 324 106 226 106"></polygon>
            <g id="Group-15-Copy" transform="translate(204.000000, 90.000000)" stroke="#9B9B9B" stroke-linecap="round">
                <path d="M19.6642051,9.79031061 C19.6642051,15.1978101 15.2621055,19.5813648 9.83172916,19.5813648 C4.40209961,19.5813648 0,15.1978101 0,9.79031061 C0,4.38355469 4.40209961,0 9.83172916,0 C15.2621055,0 19.6642051,4.38355469 19.6642051,9.79031061 Z" id="Stroke-132-Copy" fill="#FFFFFF"></path>
                <path d="M10,7 L10,35.1372902" id="Stroke-133-Copy"></path>
                <path d="M10,16.6899202 C10,16.6899202 14.7097612,16.6899202 14.7097612,12" id="Stroke-134-Copy"></path>
                <path d="M10.4342099,12.6899202 C10.4342099,12.6899202 6,12.6899202 6,8" id="Stroke-135-Copy"></path>
            </g>
            <polygon id="Fill-136-Copy-2" fill="#FFFFFF" points="217 129 229 129 229 125 217 125"></polygon>
            <polygon id="Stroke-137-Copy-3" stroke="#979797" stroke-linecap="round" points="217 129 229 129 229 125 217 125"></polygon>
            <polygon id="Stroke-137-Copy-4" stroke="#979797" stroke-linecap="round" points="40 116 52 116 52 112 40 112"></polygon>
            <polygon id="Stroke-138-Copy-3" stroke="#979797" fill="#FFFFFF" stroke-linecap="round" points="215 131 231 131 231 129 215 129"></polygon>
            <polygon id="Stroke-138-Copy-4" stroke="#979797" fill="#FFFFFF" stroke-linecap="round" points="38 118 54 118 54 116 38 116"></polygon>
            <path d="M217,132 L217,135" id="Stroke-139-Copy-3" stroke="#979797" stroke-linecap="round"></path>
            <path d="M40,119 L40,122" id="Stroke-139-Copy-4" stroke="#979797" stroke-linecap="round"></path>
            <path d="M230,132 L230,135" id="Stroke-140-Copy-3" stroke="#979797" stroke-linecap="round"></path>
            <path d="M53,119 L53,122" id="Stroke-140-Copy-4" stroke="#979797" stroke-linecap="round"></path>
            <polygon id="Fill-209-Copy-2" fill="#EDF7FF" points="234 113 254 113 254 111 234 111"></polygon>
            <polygon id="Fill-210-Copy-2" fill="#EDF7FF" points="287 113 297 113 297 111 287 111"></polygon>
            <polygon id="Fill-211-Copy-2" fill="#EDF7FF" points="304 113 314 113 314 111 304 111"></polygon>
            <g id="Group-10-Copy" transform="translate(386.000000, 104.000000)">
                <circle id="Oval-Copy-3" fill="#FFCB00" cx="6.5" cy="6.5" r="6.5"></circle>
                <path d="M9.17647059,5.95273445 C9.17647059,5.90142805 9.15794355,5.85867335 9.12088893,5.82446908 C9.08383431,5.79026482 9.04250477,5.77316294 8.99689908,5.77316294 L7.22683706,5.77316294 L7.22683706,4.00310092 C7.22683706,3.95749523 7.20973518,3.91616569 7.17553092,3.87911107 C7.14132665,3.84205645 7.09857195,3.82352941 7.04726555,3.82352941 L5.95273445,3.82352941 C5.90142805,3.82352941 5.85867335,3.84205645 5.82446908,3.87911107 C5.79026482,3.91616569 5.77316294,3.95749523 5.77316294,4.00310092 L5.77316294,5.77316294 L4.00310092,5.77316294 C3.95749523,5.77316294 3.91616569,5.79026482 3.87911107,5.82446908 C3.84205645,5.85867335 3.82352941,5.90142805 3.82352941,5.95273445 L3.82352941,7.04726555 C3.82352941,7.09857195 3.84205645,7.14132665 3.87911107,7.17553092 C3.91616569,7.20973518 3.95749523,7.22683706 4.00310092,7.22683706 L5.77316294,7.22683706 L5.77316294,8.99689908 C5.77316294,9.04250477 5.79026482,9.08383431 5.82446908,9.12088893 C5.85867335,9.15794355 5.90142805,9.17647059 5.95273445,9.17647059 L7.04726555,9.17647059 C7.09857195,9.17647059 7.14132665,9.15794355 7.17553092,9.12088893 C7.20973518,9.08383431 7.22683706,9.04250477 7.22683706,8.99689908 L7.22683706,7.22683706 L8.99689908,7.22683706 C9.04250477,7.22683706 9.08383431,7.20973518 9.12088893,7.17553092 C9.15794355,7.14132665 9.17647059,7.09857195 9.17647059,7.04726555 L9.17647059,5.95273445 Z" id="e03e-add-copy-3" fill="#00355F"></path>
            </g>
            <g id="car" transform="translate(388.500000, 128.000000) scale(-1, 1) translate(-388.500000, -128.000000) translate(372.000000, 119.000000)">
                <g>
                    <polyline id="Fill-1" fill-opacity="0.600000024" fill="#FFF1C9" points="28.05 8.02823494 33 3.42857143 33 12.8571429 28.062304 8.62149438"></polyline>
                    <g id="Group-6">
                        <path d="M25.4879725,14.4629625 C25.4879725,14.4629625 26.9287225,14.1000429 27.4246975,13.3992482 C27.7323975,12.98715 27.9814475,11.6921143 27.7030725,11.5509536 C27.4246975,11.4102482 26.9508225,10.7854982 26.9508225,10.4890607 C26.9508225,10.1930786 26.8211975,7.94179286 26.2746475,7.35711429 C25.7952475,6.84438214 25.9465475,6.84119464 24.0812225,6.29704286 C23.5040725,6.12856071 22.9970475,5.75835536 22.6404725,5.24334643 C21.5210225,3.62728393 19.3624475,0.738042857 18.3857975,0.5463375 C17.2110975,0.316382143 10.8947475,-0.212742857 3.9642725,0.738953571 C3.1712225,0.886944643 1.5035225,5.38359643 1.2493725,5.91454286 C0.9947975,6.44503393 1.0993475,9.07881964 0.9841725,9.64482857 C0.8685725,10.2112929 0.4444225,10.5223018 0.2684725,10.7317661 C0.2132225,10.979025 0.1651975,12.9284089 0.6373725,13.6478732 C0.7516975,13.7981411 2.0283975,14.4629625 2.0283975,14.4629625" id="Fill-3" fill="#C3E3FE"></path>
                        <path d="M25.4879725,14.4629625 C25.4879725,14.4629625 26.9287225,14.1000429 27.4246975,13.3992482 C27.7323975,12.98715 27.9814475,11.6921143 27.7030725,11.5509536 C27.4246975,11.4102482 26.9508225,10.7854982 26.9508225,10.4890607 C26.9508225,10.1930786 26.8211975,7.94179286 26.2746475,7.35711429 C25.7952475,6.84438214 25.9465475,6.84119464 24.0812225,6.29704286 C23.5040725,6.12856071 22.9970475,5.75835536 22.6404725,5.24334643 C21.5210225,3.62728393 19.3624475,0.738042857 18.3857975,0.5463375 C17.2110975,0.316382143 10.8947475,-0.212742857 3.9642725,0.738953571 C3.1712225,0.886944643 1.5035225,5.38359643 1.2493725,5.91454286 C0.9947975,6.44503393 1.0993475,9.07881964 0.9841725,9.64482857 C0.8685725,10.2112929 0.4444225,10.5223018 0.2684725,10.7317661 C0.2132225,10.979025 0.1651975,12.9284089 0.6373725,13.6478732 C0.7516975,13.7981411 2.0283975,14.4629625 2.0283975,14.4629625" id="Stroke-5" stroke="#0D67B5" stroke-linecap="round" stroke-linejoin="round"></path>
                    </g>
                    <path d="M9.9,11.1428571 L18.15,11.1428571" id="Stroke-7" stroke="#0D67B5" stroke-width="1.05" stroke-linecap="round" stroke-linejoin="round"></path>
                    <path d="M19.232364,5.13077601 C19.6914314,5.12579525 19.957532,4.64183078 19.6984805,4.28487585 C19.0028303,3.3273235 17.9943799,1.99870406 17.3877236,1.90033392 C16.6074852,1.77290931 12.9816455,1.53632291 8.50904237,1.93810473 C7.92926047,2.00202457 7.49310236,2.21702765 7.33493998,2.53621177 C7.055182,3.07413454 6.78159191,3.92958118 6.61726163,4.49323791 C6.53531677,4.77465121 6.75515808,5.05274401 7.06443384,5.0631206 C9.19455956,5.13617184 16.4828057,5.15983048 19.232364,5.13077601" id="Fill-9" fill="#EDF7FF"></path>
                    <path d="M19.232364,5.13077601 C19.6914314,5.12579525 19.957532,4.64183078 19.6984805,4.28487585 C19.0028303,3.3273235 17.9943799,1.99870406 17.3877236,1.90033392 C16.6074852,1.77290931 12.9816455,1.53632291 8.50904237,1.93810473 C7.92926047,2.00202457 7.49310236,2.21702765 7.33493998,2.53621177 C7.055182,3.07413454 6.78159191,3.92958118 6.61726163,4.49323791 C6.53531677,4.77465121 6.75515808,5.05274401 7.06443384,5.0631206 C9.19455956,5.13617184 16.4828057,5.15983048 19.232364,5.13077601 Z" id="Stroke-11" stroke="#0D67B5" stroke-width="1.05"></path>
                    <path d="M9.075,14.5714286 L19.8,14.5714286" id="Stroke-13" stroke="#0D67B5" stroke-linecap="round"></path>
                    <path d="M9.075,14.5714286 C9.075,16.4649796 7.59754286,18 5.775,18 C3.95245714,18 2.475,16.4649796 2.475,14.5714286 C2.475,12.6778776 3.95245714,11.1428571 5.775,11.1428571 C7.59754286,11.1428571 9.075,12.6778776 9.075,14.5714286" id="Fill-15" fill="#0D67B5"></path>
                    <path d="M7.425,14.5714286 C7.425,15.5180012 6.68649194,16.2857143 5.775,16.2857143 C4.86392389,16.2857143 4.125,15.5180012 4.125,14.5714286 C4.125,13.624856 4.86392389,12.8571429 5.775,12.8571429 C6.68649194,12.8571429 7.425,13.624856 7.425,14.5714286" id="Fill-17" fill="#FFFFFF"></path>
                    <path d="M26.4,14.5714286 C26.4,16.4649796 24.9225429,18 23.1,18 C21.2774571,18 19.8,16.4649796 19.8,14.5714286 C19.8,12.6778776 21.2774571,11.1428571 23.1,11.1428571 C24.9225429,11.1428571 26.4,12.6778776 26.4,14.5714286" id="Fill-19" fill="#0D67B5"></path>
                    <path d="M24.75,14.5714286 C24.75,15.5180012 24.0114919,16.2857143 23.1,16.2857143 C22.1889239,16.2857143 21.45,15.5180012 21.45,14.5714286 C21.45,13.624856 22.1889239,12.8571429 23.1,12.8571429 C24.0114919,12.8571429 24.75,13.624856 24.75,14.5714286" id="Fill-21" fill="#FFFFFF"></path>
                </g>
            </g>
            <g id="cloud_2_1" opacity="0.5" transform="translate(217.000000, 36.000000)" stroke="#C0C0C0" stroke-linecap="round">
                <g id="cloud">
                    <path d="M49,13 C49,10.2385714 46.7614286,8 44,8 C41.2385714,8 39,10.2385714 39,13" id="Stroke-4" fill="#FFFFFF"></path>
                    <path d="M15,8.99928571 C14.1642857,8.37142857 13.1257143,8 12,8 C9.23857143,8 7,10.2378571 7,13" id="Stroke-6" fill="#FFFFFF"></path>
                    <path d="M40,9.25 C38.6519653,3.84662307 33.8374546,0 27.7999298,0 C20.7310002,0 15,5.50585594 15,12.2974819 C15,12.8754636 15.0417682,13.4431973 15.1219362,14" id="Stroke-8" fill="#FFFFFF"></path>
                    <polyline id="Stroke-10" points="60 13 51 13 48 13"></polyline>
                    <path d="M7,13 L0,13" id="Stroke-12"></path>
                    <path d="M10,15 L4,15" id="Stroke-16"></path>
                    <path d="M66,15 L45,15" id="Stroke-16"></path>
                </g>
            </g>
            <g id="cloud_2_2" opacity="0.5" transform="translate(421.000000, 57.000000)" stroke="#C0C0C0" stroke-linecap="round">
                <g id="medium-cloud-copy">
                    <path d="M12.1276596,13.1536141 C12.1276596,10.5832026 14.0287377,8.5 16.3723404,8.5 C18.7168787,8.5 20.6170213,10.5832026 20.6170213,13.1536141 C20.6170213,14.7526849 19.8816633,16.1630264 18.7617861,17" id="Stroke-4"></path>
                    <path d="M43.6595745,9.47100035 C44.4194119,8.86077962 45.3646977,8.5 46.3881726,8.5 C48.9002471,8.5 50.9361702,10.6743128 50.9361702,13.3571429" id="Stroke-6"></path>
                    <path d="M19.4042553,8.98655538 C20.6994035,3.83155506 25.5624502,0 31.3631562,0 C38.1544458,0 43.6595745,5.25355476 43.6595745,11.733006 C43.6595745,12.2841063 43.6196316,12.8261557 43.5427415,13.3571429" id="Stroke-8"></path>
                    <path d="M0,12.1428571 L10.9148936,12.1428571" id="Stroke-10"></path>
                    <path d="M50.9361702,12.1428571 L57,12.1428571" id="Stroke-12"></path>
                </g>
            </g>
            <g id="cloud_2_3" opacity="0.5" transform="translate(357.000000, 48.000000)" stroke="#C0C0C0" stroke-linecap="round">
                <g id="Group-6-Copy">
                    <path d="M6,7.73742006 C6,6.2254133 7.11968261,5 8.5,5 C9.88086842,5 11,6.2254133 11,7.73742006 C11,8.67804996 10.5668944,9.5076626 9.90731761,10" id="Stroke-4"></path>
                    <path d="M23,5.59973551 C23.4176884,5.22283447 23.9373192,5 24.4999311,5 C25.8808376,5 27,6.3429579 27,8" id="Stroke-6"></path>
                    <path d="M10,4.7095317 C10.694154,2.00798073 13.3005764,0 16.4095513,0 C20.0494442,0 23,2.75319982 23,6.14884807 C23,6.43765999 22.978592,6.72172866 22.9373816,7" id="Stroke-8"></path>
                    <path d="M0,6 L6,6" id="Stroke-10"></path>
                </g>
            </g>
            <g id="Group-8-Copy" transform="translate(173.000000, 41.000000)">
                <g id="Group-7-Copy" transform="translate(18.500000, 6.500000) rotate(-360.000000) translate(-18.500000, -6.500000) translate(12.000000, 0.000000)">
                    <circle id="Oval-Copy-3" fill="#FFCB00" cx="6.5" cy="6.5" r="6.5"></circle>
                    <path d="M9.1,5.96837061 C9.1,5.9185301 9.08200231,5.87699697 9.04600639,5.84376997 C9.01001047,5.81054296 8.96986178,5.79392971 8.92555911,5.79392971 L7.20607029,5.79392971 L7.20607029,4.07444089 C7.20607029,4.03013822 7.18945704,3.98998953 7.15623003,3.95399361 C7.12300303,3.91799769 7.0814699,3.9 7.03162939,3.9 L5.96837061,3.9 C5.9185301,3.9 5.87699697,3.91799769 5.84376997,3.95399361 C5.81054296,3.98998953 5.79392971,4.03013822 5.79392971,4.07444089 L5.79392971,5.79392971 L4.07444089,5.79392971 C4.03013822,5.79392971 3.98998953,5.81054296 3.95399361,5.84376997 C3.91799769,5.87699697 3.9,5.9185301 3.9,5.96837061 L3.9,7.03162939 C3.9,7.0814699 3.91799769,7.12300303 3.95399361,7.15623003 C3.98998953,7.18945704 4.03013822,7.20607029 4.07444089,7.20607029 L5.79392971,7.20607029 L5.79392971,8.92555911 C5.79392971,8.96986178 5.81054296,9.01001047 5.84376997,9.04600639 C5.87699697,9.08200231 5.9185301,9.1 5.96837061,9.1 L7.03162939,9.1 C7.0814699,9.1 7.12300303,9.08200231 7.15623003,9.04600639 C7.18945704,9.01001047 7.20607029,8.96986178 7.20607029,8.92555911 L7.20607029,7.20607029 L8.92555911,7.20607029 C8.96986178,7.20607029 9.01001047,7.18945704 9.04600639,7.15623003 C9.08200231,7.12300303 9.1,7.0814699 9.1,7.03162939 L9.1,5.96837061 Z" id="e03e-add-copy-3" fill="#00355F"></path>
                </g>
                <path d="M2.50456713,22.6513897 C2.50456713,22.6513897 2.83824545,21.4012009 6.08774196,19.9852778 C9.29856713,18.5853757 16.7383783,15.0712568 26.3183713,13.2995575 C26.5150427,13.263096 26.706742,13.205089 26.9039657,13.1702848 C28.1138259,12.9575925 31.667721,12.099089 34.3354902,13.9022778 C34.3354902,13.9022778 36.7518958,15.3187533 35.9188049,16.3186834 C35.085714,17.3186135 31.5859587,20.3178512 9.33779091,22.4016834 C9.33779091,22.4016834 3.67133636,23.0679351 2.50456713,22.6513897 Z" id="Stroke-232" stroke="#0D67B5" stroke-width="0.5" stroke-linecap="round"></path>
                <path d="M3.79613427,21.2346932 L0.673700699,15.6063575 C0.550504895,15.3853785 0.68474965,15.1091547 0.934455944,15.0677212 L2.65809231,14.7854205 C2.84371469,14.7550358 3.03154685,14.8191198 3.15971469,14.9566792 C3.80773566,15.6527631 6.13464476,17.6691967 9.60401538,18.3636233 C9.60401538,18.3636233 5.87941399,19.9850568 3.79613427,21.2346932 Z" id="Stroke-234" stroke="#0D67B5" stroke-width="0.5" stroke-linecap="round"></path>
                <path d="M14.9602706,19.1090407 C14.9602706,19.4775233 14.7238231,19.7758449 14.4326832,19.7758449 C14.1409909,19.7758449 13.9045434,19.4775233 13.9045434,19.1090407 C13.9045434,18.7411107 14.1409909,18.442789 14.4326832,18.442789 C14.7238231,18.442789 14.9602706,18.7411107 14.9602706,19.1090407 Z" id="Stroke-236" stroke="#0D67B5" stroke-width="0.5" stroke-linecap="round"></path>
                <path d="M17.4468371,18.3343435 C17.4468371,18.702826 17.2103895,19.0011477 16.9192497,19.0011477 C16.6275573,19.0011477 16.3916622,18.702826 16.3916622,18.3343435 C16.3916622,17.9664135 16.6275573,17.6675393 16.9192497,17.6675393 C17.2103895,17.6675393 17.4468371,17.9664135 17.4468371,18.3343435 Z" id="Stroke-238" stroke="#0D67B5" stroke-width="0.5" stroke-linecap="round"></path>
                <path d="M19.7059608,17.7284743 C19.7059608,18.0964044 19.4695133,18.3952785 19.177821,18.3952785 C18.8866811,18.3952785 18.6502336,18.0964044 18.6502336,17.7284743 C18.6502336,17.3599918 18.8866811,17.0616701 19.177821,17.0616701 C19.4695133,17.0616701 19.7059608,17.3599918 19.7059608,17.7284743 Z" id="Stroke-240" stroke="#0D67B5" stroke-width="0.5" stroke-linecap="round"></path>
                <path d="M22.0333671,17.1506694 C22.0333671,17.5185995 21.7969196,17.8169212 21.5057797,17.8169212 C21.2140874,17.8169212 20.9776399,17.5185995 20.9776399,17.1506694 C20.9776399,16.7821869 21.2140874,16.4838652 21.5057797,16.4838652 C21.7969196,16.4838652 22.0333671,16.7821869 22.0333671,17.1506694 Z" id="Stroke-242" stroke="#0D67B5" stroke-width="0.5" stroke-linecap="round"></path>
                <path d="M24.1811175,16.6432463 C24.1811175,17.0117288 23.9446699,17.3100505 23.6529776,17.3100505 C23.3618378,17.3100505 23.1253902,17.0117288 23.1253902,16.6432463 C23.1253902,16.2747638 23.3618378,15.9764421 23.6529776,15.9764421 C23.9446699,15.9764421 24.1811175,16.2747638 24.1811175,16.6432463 Z" id="Stroke-244" stroke="#0D67B5" stroke-width="0.5" stroke-linecap="round"></path>
                <path d="M26.6655294,15.9837344 C26.6655294,16.352217 26.4290818,16.6505386 26.1373895,16.6505386 C25.8462497,16.6505386 25.6098021,16.352217 25.6098021,15.9837344 C25.6098021,15.6152519 25.8462497,15.3169302 26.1373895,15.3169302 C26.4290818,15.3169302 26.6655294,15.6152519 26.6655294,15.9837344 Z" id="Stroke-246" stroke="#0D67B5" stroke-width="0.5" stroke-linecap="round"></path>
                <path d="M32.2803853,13.0410121 C32.2803853,13.0410121 31.5859587,13.6105855 31.0025741,13.8188582 C30.424714,14.0249212 30.2529028,14.1801589 30.2529028,14.5132848 C30.2529028,14.8464107 30.3357699,15.4297953 30.3357699,15.4297953 C30.3357699,15.4297953 30.5578538,15.9855575 31.3914972,15.8187184 C32.2245881,15.6518792 34.0023643,14.6519491 34.3354902,13.9022778 C34.3354902,13.9022778 33.4466021,13.2078512 32.2803853,13.0410121" id="Fill-247" fill="#EDF7FF"></path>
                <path d="M32.2803853,13.0410121 C32.2803853,13.0410121 31.5859587,13.6105855 31.0025741,13.8188582 C30.424714,14.0249212 30.2529028,14.1801589 30.2529028,14.5132848 C30.2529028,14.8464107 30.3357699,15.4297953 30.3357699,15.4297953 C30.3357699,15.4297953 30.5578538,15.9855575 31.3914972,15.8187184 C32.2245881,15.6518792 34.0023643,14.6519491 34.3354902,13.9022778 C34.3354902,13.9022778 33.4466021,13.2078512 32.2803853,13.0410121 Z" id="Stroke-248" stroke="#0D67B5" stroke-width="0.5" stroke-linecap="round"></path>
                <path d="M2.11586503,22.679454 L5.42115874,21.7071463 C5.42115874,21.7071463 7.05971818,21.2071813 7.00447343,21.7905659 C6.92547343,22.6219995 6.55975315,22.8739156 5.25431958,23.0125799 C3.94888601,23.1512442 0.199424476,23.4567477 2.11586503,22.679454" id="Fill-249" stroke="#0D67B5" stroke-width="0.5" fill="#EDF7FF"></path>
                <path d="M13.087142,21.797361 C13.087142,21.797361 18.2536315,18.9920323 25.864149,18.2976058 C25.864149,18.2976058 26.7254147,18.1865638 26.7254147,19.0748995 C26.7254147,19.96434 26.6138203,20.9084729 25.6973098,21.1587316 C24.7807993,21.4084379 14.5036175,22.9365079 14.5036175,22.9365079 L13.087142,21.797361 Z" id="Fill-251" fill="#FFFFFF"></path>
                <path d="M13.087142,21.797361 C13.087142,21.797361 18.2536315,18.9920323 25.864149,18.2976058 C25.864149,18.2976058 26.7254147,18.1865638 26.7254147,19.0748995 C26.7254147,19.96434 26.6138203,20.9084729 25.6973098,21.1587316 C24.7807993,21.4084379 14.5036175,22.9365079 14.5036175,22.9365079 L13.087142,21.797361 Z" id="Stroke-252" stroke="#0D67B5" stroke-width="0.5" stroke-linecap="round"></path>
                <g id="Group-255" transform="translate(13.244755, 19.839487)">
                    <path d="M11.0361895,0.228768531 L8.95290979,2.25625105 C8.95290979,2.25625105 8.75844825,2.64517413 7.81376294,2.78439091 C6.86963007,2.92305524 1.82136434,3.58267762 1.82136434,3.58267762 L0.342462238,2.72859371 L3.36987483,1.39498531" id="Fill-253" fill="#FFFFFF"></path>
                    <path d="M11.0361895,0.228768531 L8.95290979,2.25625105 C8.95290979,2.25625105 8.75844825,2.64517413 7.81376294,2.78439091 C6.86963007,2.92305524 1.82136434,3.58267762 1.82136434,3.58267762 L0.342462238,2.72859371 L3.36987483,1.39498531" id="Stroke-254" stroke="#0D67B5" stroke-width="0.5" stroke-linecap="round"></path>
                </g>
                <path d="M10.3089937,21.0226638 L11.8558469,20.7928456 C11.9851196,20.7740624 12.1166021,20.8116288 12.2160427,20.8967058 L15.4506231,23.3816149 L12.048651,23.7948456 C11.9017,23.8092093 11.7591685,23.7407058 11.6779587,23.6169575 L10.1730916,21.3259575 C10.0940916,21.205524 10.1670147,21.0442093 10.3089937,21.0226638" id="Fill-256" stroke="#0D67B5" stroke-width="0.5" fill="#EDF7FF"></path>
            </g>
            <g id="cloud_2_3" opacity="0.5" transform="translate(167.500000, 63.000000) scale(-1, 1) translate(-167.500000, -63.000000) translate(154.000000, 58.000000)" stroke="#C0C0C0" stroke-linecap="round">
                <g id="Group-6-Copy">
                    <path d="M6,7.73742006 C6,6.2254133 7.11968261,5 8.5,5 C9.88086842,5 11,6.2254133 11,7.73742006 C11,8.67804996 10.5668944,9.5076626 9.90731761,10" id="Stroke-4"></path>
                    <path d="M23,5.59973551 C23.4176884,5.22283447 23.9373192,5 24.4999311,5 C25.8808376,5 27,6.3429579 27,8" id="Stroke-6"></path>
                    <path d="M10,4.7095317 C10.694154,2.00798073 13.3005764,0 16.4095513,0 C20.0494442,0 23,2.75319982 23,6.14884807 C23,6.43765999 22.978592,6.72172866 22.9373816,7" id="Stroke-8"></path>
                    <path d="M0,6 L6,6" id="Stroke-10"></path>
                </g>
            </g>
            <g id="Page-1-Copy-8" transform="translate(444.000000, 48.000000)">
                <path d="M144.683652,37.3312858 C144.683652,55.6839987 129.805548,70.5615503 111.453387,70.5615503 C93.1001226,70.5615503 78.222571,55.6839987 78.222571,37.3312858 C78.222571,18.9785729 93.1001226,4.10046968 111.453387,4.10046968 C129.805548,4.10046968 144.683652,18.9785729 144.683652,37.3312858 Z" id="Stroke-193" stroke="#E6E6E6"></path>
                <path d="M114.830306,3.66000677 C114.830306,5.60499387 113.253796,7.18205516 111.308258,7.18205516 C109.363271,7.18205516 107.786209,5.60499387 107.786209,3.66000677 C107.786209,1.71501968 109.363271,0.137958387 111.308258,0.137958387 C113.253796,0.137958387 114.830306,1.71501968 114.830306,3.66000677" id="Fill-13" fill="#FBF5E3"></path>
                <path d="M114.830306,3.66000677 C114.830306,5.60499387 113.253796,7.18205516 111.308258,7.18205516 C109.363271,7.18205516 107.786209,5.60499387 107.786209,3.66000677 C107.786209,1.71501968 109.363271,0.137958387 111.308258,0.137958387 C113.253796,0.137958387 114.830306,1.71501968 114.830306,3.66000677 Z" id="Stroke-15" stroke="#F8E9D3" stroke-width="0.5"></path>
                <path d="M113.644669,3.66000677 C113.644669,4.95022935 112.598811,5.99663903 111.308589,5.99663903 C110.017815,5.99663903 108.971956,4.95022935 108.971956,3.66000677 C108.971956,2.36978419 110.017815,1.32337452 111.308589,1.32337452 C112.598811,1.32337452 113.644669,2.36978419 113.644669,3.66000677" id="Fill-17" fill="#FBEEC7"></path>
                <path d="M113.644669,3.66000677 C113.644669,4.95022935 112.598811,5.99663903 111.308589,5.99663903 C110.017815,5.99663903 108.971956,4.95022935 108.971956,3.66000677 C108.971956,2.36978419 110.017815,1.32337452 111.308589,1.32337452 C112.598811,1.32337452 113.644669,2.36978419 113.644669,3.66000677 Z" id="Stroke-19" stroke="#F9DDB0" stroke-width="0.5"></path>
                <path d="M112.477843,3.66000677 C112.477843,4.30594548 111.954362,4.82942613 111.308423,4.82942613 C110.662485,4.82942613 110.139004,4.30594548 110.139004,3.66000677 C110.139004,3.01406806 110.662485,2.49058742 111.308423,2.49058742 C111.954362,2.49058742 112.477843,3.01406806 112.477843,3.66000677" id="Fill-21" fill="#FDE7A8"></path>
                <path d="M112.477843,3.66000677 C112.477843,4.30594548 111.954362,4.82942613 111.308423,4.82942613 C110.662485,4.82942613 110.139004,4.30594548 110.139004,3.66000677 C110.139004,3.01406806 110.662485,2.49058742 111.308423,2.49058742 C111.954362,2.49058742 112.477843,3.01406806 112.477843,3.66000677 Z" id="Stroke-23" stroke="#FACB81" stroke-width="0.5"></path>
                <path d="M111.498509,3.66000677 C111.498509,3.76481323 111.413561,3.84976161 111.308203,3.84976161 C111.203396,3.84976161 111.118448,3.76481323 111.118448,3.66000677 C111.118448,3.55520032 111.203396,3.47025194 111.308203,3.47025194 C111.413561,3.47025194 111.498509,3.55520032 111.498509,3.66000677" id="Fill-25" fill="#FEFEFE"></path>
                <path d="M111.498509,3.66000677 C111.498509,3.76481323 111.413561,3.84976161 111.308203,3.84976161 C111.203396,3.84976161 111.118448,3.76481323 111.118448,3.66000677 C111.118448,3.55520032 111.203396,3.47025194 111.308203,3.47025194 C111.413561,3.47025194 111.498509,3.55520032 111.498509,3.66000677 Z" id="Stroke-27" stroke="#E5BC93" stroke-width="0.25"></path>
                <path d="M96.613621,9.14756226 C96.613621,11.0925494 95.0371113,12.6696106 93.0915726,12.6696106 C91.1465855,12.6696106 89.5689726,11.0925494 89.5689726,9.14756226 C89.5689726,7.20257516 91.1465855,5.62551387 93.0915726,5.62551387 C95.0371113,5.62551387 96.613621,7.20257516 96.613621,9.14756226" id="Fill-29" fill="#FBF5E3"></path>
                <path d="M96.613621,9.14756226 C96.613621,11.0925494 95.0371113,12.6696106 93.0915726,12.6696106 C91.1465855,12.6696106 89.5689726,11.0925494 89.5689726,9.14756226 C89.5689726,7.20257516 91.1465855,5.62551387 93.0915726,5.62551387 C95.0371113,5.62551387 96.613621,7.20257516 96.613621,9.14756226 Z" id="Stroke-31" stroke="#F8E9D3" stroke-width="0.5"></path>
                <path d="M95.427929,9.14756226 C95.427929,10.4377848 94.382071,11.4841945 93.0918484,11.4841945 C91.8010742,11.4841945 90.7546645,10.4377848 90.7546645,9.14756226 C90.7546645,7.85733968 91.8010742,6.81093 93.0918484,6.81093 C94.382071,6.81093 95.427929,7.85733968 95.427929,9.14756226" id="Fill-33" fill="#FBEEC7"></path>
                <path d="M95.427929,9.14756226 C95.427929,10.4377848 94.382071,11.4841945 93.0918484,11.4841945 C91.8010742,11.4841945 90.7546645,10.4377848 90.7546645,9.14756226 C90.7546645,7.85733968 91.8010742,6.81093 93.0918484,6.81093 C94.382071,6.81093 95.427929,7.85733968 95.427929,9.14756226 Z" id="Stroke-35" stroke="#F9DDB0" stroke-width="0.5"></path>
                <path d="M94.2606058,9.14756226 C94.2606058,9.79294935 93.7371252,10.3169816 93.0917381,10.3169816 C92.4457994,10.3169816 91.9223187,9.79294935 91.9223187,9.14756226 C91.9223187,8.50162355 92.4457994,7.9781429 93.0917381,7.9781429 C93.7371252,7.9781429 94.2606058,8.50162355 94.2606058,9.14756226" id="Fill-37" fill="#FDE7A8"></path>
                <path d="M94.2606058,9.14756226 C94.2606058,9.79294935 93.7371252,10.3169816 93.0917381,10.3169816 C92.4457994,10.3169816 91.9223187,9.79294935 91.9223187,9.14756226 C91.9223187,8.50162355 92.4457994,7.9781429 93.0917381,7.9781429 C93.7371252,7.9781429 94.2606058,8.50162355 94.2606058,9.14756226 Z" id="Stroke-39" stroke="#FACB81" stroke-width="0.5"></path>
                <path d="M93.2812723,9.14756226 C93.2812723,9.25236871 93.1963239,9.3373171 93.0915174,9.3373171 C92.986711,9.3373171 92.9017626,9.25236871 92.9017626,9.14756226 C92.9017626,9.04275581 92.986711,8.95725581 93.0915174,8.95725581 C93.1963239,8.95725581 93.2812723,9.04275581 93.2812723,9.14756226" id="Fill-41" fill="#FEFEFE"></path>
                <path d="M93.2812723,9.14756226 C93.2812723,9.25236871 93.1963239,9.3373171 93.0915174,9.3373171 C92.986711,9.3373171 92.9017626,9.25236871 92.9017626,9.14756226 C92.9017626,9.04275581 92.986711,8.95725581 93.0915174,8.95725581 C93.1963239,8.95725581 93.2812723,9.04275581 93.2812723,9.14756226 Z" id="Stroke-43" stroke="#E5BC93" stroke-width="0.25"></path>
                <path d="M84.2890442,23.475211 C84.2890442,25.4201981 82.7125345,26.997811 80.7669958,26.997811 C78.8220087,26.997811 77.2449474,25.4201981 77.2449474,23.475211 C77.2449474,21.5302239 78.8220087,19.9531626 80.7669958,19.9531626 C82.7125345,19.9531626 84.2890442,21.5302239 84.2890442,23.475211" id="Fill-45" fill="#FBF5E3"></path>
                <path d="M84.2890442,23.475211 C84.2890442,25.4201981 82.7125345,26.997811 80.7669958,26.997811 C78.8220087,26.997811 77.2449474,25.4201981 77.2449474,23.475211 C77.2449474,21.5302239 78.8220087,19.9531626 80.7669958,19.9531626 C82.7125345,19.9531626 84.2890442,21.5302239 84.2890442,23.475211 Z" id="Stroke-47" stroke="#F8E9D3" stroke-width="0.5"></path>
                <path d="M83.1039039,23.475211 C83.1039039,24.7659852 82.0580458,25.8118432 80.7672716,25.8118432 C79.477049,25.8118432 78.4306394,24.7659852 78.4306394,23.475211 C78.4306394,22.1849884 79.477049,21.1391303 80.7672716,21.1391303 C82.0580458,21.1391303 83.1039039,22.1849884 83.1039039,23.475211" id="Fill-49" fill="#FBEEC7"></path>
                <path d="M83.1039039,23.475211 C83.1039039,24.7659852 82.0580458,25.8118432 80.7672716,25.8118432 C79.477049,25.8118432 78.4306394,24.7659852 78.4306394,23.475211 C78.4306394,22.1849884 79.477049,21.1391303 80.7672716,21.1391303 C82.0580458,21.1391303 83.1039039,22.1849884 83.1039039,23.475211 Z" id="Stroke-51" stroke="#F9DDB0" stroke-width="0.5"></path>
                <path d="M81.9365806,23.475211 C81.9365806,24.1211497 81.4131,24.6446303 80.7671613,24.6446303 C80.1212226,24.6446303 79.5982935,24.1211497 79.5982935,23.475211 C79.5982935,22.8292723 80.1212226,22.3063432 80.7671613,22.3063432 C81.4131,22.3063432 81.9365806,22.8292723 81.9365806,23.475211" id="Fill-53" fill="#FDE7A8"></path>
                <path d="M81.9365806,23.475211 C81.9365806,24.1211497 81.4131,24.6446303 80.7671613,24.6446303 C80.1212226,24.6446303 79.5982935,24.1211497 79.5982935,23.475211 C79.5982935,22.8292723 80.1212226,22.3063432 80.7671613,22.3063432 C81.4131,22.3063432 81.9365806,22.8292723 81.9365806,23.475211 Z" id="Stroke-55" stroke="#FACB81" stroke-width="0.5"></path>
                <path d="M80.9572471,23.475211 C80.9572471,23.5800174 80.8722987,23.6655174 80.7669406,23.6655174 C80.6621342,23.6655174 80.5777374,23.5800174 80.5777374,23.475211 C80.5777374,23.3709561 80.6621342,23.2854561 80.7669406,23.2854561 C80.8722987,23.2854561 80.9572471,23.3709561 80.9572471,23.475211" id="Fill-57" fill="#FEFEFE"></path>
                <path d="M80.9572471,23.475211 C80.9572471,23.5800174 80.8722987,23.6655174 80.7669406,23.6655174 C80.6621342,23.6655174 80.5777374,23.5800174 80.5777374,23.475211 C80.5777374,23.3709561 80.6621342,23.2854561 80.7669406,23.2854561 C80.8722987,23.2854561 80.9572471,23.3709561 80.9572471,23.475211 Z" id="Stroke-59" stroke="#E5BC93" stroke-width="0.25"></path>
                <path d="M81.6543203,42.1993248 C81.6543203,44.1443119 80.0778106,45.7213732 78.1322719,45.7213732 C76.1872848,45.7213732 74.6096719,44.1443119 74.6096719,42.1993248 C74.6096719,40.2543377 76.1872848,38.6772765 78.1322719,38.6772765 C80.0778106,38.6772765 81.6543203,40.2543377 81.6543203,42.1993248" id="Fill-61" fill="#FBF5E3"></path>
                <path d="M81.6543203,42.1993248 C81.6543203,44.1443119 80.0778106,45.7213732 78.1322719,45.7213732 C76.1872848,45.7213732 74.6096719,44.1443119 74.6096719,42.1993248 C74.6096719,40.2543377 76.1872848,38.6772765 78.1322719,38.6772765 C80.0778106,38.6772765 81.6543203,40.2543377 81.6543203,42.1993248 Z" id="Stroke-63" stroke="#F8E9D3" stroke-width="0.5"></path>
                <path d="M80.4686835,42.1993248 C80.4686835,43.4895474 79.4228255,44.5354055 78.1326029,44.5354055 C76.8418287,44.5354055 75.795419,43.4895474 75.795419,42.1993248 C75.795419,40.9085506 76.8418287,39.8626926 78.1326029,39.8626926 C79.4228255,39.8626926 80.4686835,40.9085506 80.4686835,42.1993248" id="Fill-65" fill="#FBEEC7"></path>
                <path d="M80.4686835,42.1993248 C80.4686835,43.4895474 79.4228255,44.5354055 78.1326029,44.5354055 C76.8418287,44.5354055 75.795419,43.4895474 75.795419,42.1993248 C75.795419,40.9085506 76.8418287,39.8626926 78.1326029,39.8626926 C79.4228255,39.8626926 80.4686835,40.9085506 80.4686835,42.1993248 Z" id="Stroke-67" stroke="#F9DDB0" stroke-width="0.5"></path>
                <path d="M79.3013603,42.1993248 C79.3013603,42.8452635 78.7784313,43.3687442 78.1324926,43.3687442 C77.4865539,43.3687442 76.9630732,42.8452635 76.9630732,42.1993248 C76.9630732,41.5533861 77.4865539,41.0299055 78.1324926,41.0299055 C78.7784313,41.0299055 79.3013603,41.5533861 79.3013603,42.1993248" id="Fill-69" fill="#FDE7A8"></path>
                <path d="M79.3013603,42.1993248 C79.3013603,42.8452635 78.7784313,43.3687442 78.1324926,43.3687442 C77.4865539,43.3687442 76.9630732,42.8452635 76.9630732,42.1993248 C76.9630732,41.5533861 77.4865539,41.0299055 78.1324926,41.0299055 C78.7784313,41.0299055 79.3013603,41.5533861 79.3013603,42.1993248 Z" id="Stroke-71" stroke="#FACB81" stroke-width="0.5"></path>
                <path d="M78.3220268,42.1993248 C78.3220268,42.3041313 78.2370784,42.3896313 78.1322719,42.3896313 C78.0274655,42.3896313 77.9425171,42.3041313 77.9425171,42.1993248 C77.9425171,42.0945184 78.0274655,42.0090184 78.1322719,42.0090184 C78.2370784,42.0090184 78.3220268,42.0945184 78.3220268,42.1993248" id="Fill-73" fill="#FEFEFE"></path>
                <path d="M78.3220268,42.1993248 C78.3220268,42.3041313 78.2370784,42.3896313 78.1322719,42.3896313 C78.0274655,42.3896313 77.9425171,42.3041313 77.9425171,42.1993248 C77.9425171,42.0945184 78.0274655,42.0090184 78.1322719,42.0090184 C78.2370784,42.0090184 78.3220268,42.0945184 78.3220268,42.1993248 Z" id="Stroke-75" stroke="#E5BC93" stroke-width="0.25"></path>
                <path d="M89.6123294,59.4345803 C89.6123294,61.3795674 88.0352681,62.9566287 86.0897294,62.9566287 C84.1447423,62.9566287 82.567681,61.3795674 82.567681,59.4345803 C82.567681,57.4895932 84.1447423,55.9125319 86.0897294,55.9125319 C88.0352681,55.9125319 89.6123294,57.4895932 89.6123294,59.4345803" id="Fill-77" fill="#FBF5E3"></path>
                <path d="M89.6123294,59.4345803 C89.6123294,61.3795674 88.0352681,62.9566287 86.0897294,62.9566287 C84.1447423,62.9566287 82.567681,61.3795674 82.567681,59.4345803 C82.567681,57.4895932 84.1447423,55.9125319 86.0897294,55.9125319 C88.0352681,55.9125319 89.6123294,57.4895932 89.6123294,59.4345803 Z" id="Stroke-79" stroke="#F8E9D3" stroke-width="0.5"></path>
                <path d="M88.4266926,59.4345803 C88.4266926,60.7253545 87.3808345,61.770661 86.0900603,61.770661 C84.7998377,61.770661 83.7534281,60.7253545 83.7534281,59.4345803 C83.7534281,58.1443577 84.7998377,57.0984997 86.0900603,57.0984997 C87.3808345,57.0984997 88.4266926,58.1443577 88.4266926,59.4345803" id="Fill-81" fill="#FBEEC7"></path>
                <path d="M88.4266926,59.4345803 C88.4266926,60.7253545 87.3808345,61.770661 86.0900603,61.770661 C84.7998377,61.770661 83.7534281,60.7253545 83.7534281,59.4345803 C83.7534281,58.1443577 84.7998377,57.0984997 86.0900603,57.0984997 C87.3808345,57.0984997 88.4266926,58.1443577 88.4266926,59.4345803 Z" id="Stroke-83" stroke="#F9DDB0" stroke-width="0.5"></path>
                <path d="M87.2593694,59.4345803 C87.2593694,60.080519 86.7358887,60.6039997 86.08995,60.6039997 C85.4440113,60.6039997 84.9210823,60.080519 84.9210823,59.4345803 C84.9210823,58.7886416 85.4440113,58.265161 86.08995,58.265161 C86.7358887,58.265161 87.2593694,58.7886416 87.2593694,59.4345803" id="Fill-85" fill="#FDE7A8"></path>
                <path d="M87.2593694,59.4345803 C87.2593694,60.080519 86.7358887,60.6039997 86.08995,60.6039997 C85.4440113,60.6039997 84.9210823,60.080519 84.9210823,59.4345803 C84.9210823,58.7886416 85.4440113,58.265161 86.08995,58.265161 C86.7358887,58.265161 87.2593694,58.7886416 87.2593694,59.4345803 Z" id="Stroke-87" stroke="#FACB81" stroke-width="0.5"></path>
                <path d="M86.2800358,59.4345803 C86.2800358,59.5393868 86.1950874,59.6248868 86.0897294,59.6248868 C85.9854745,59.6248868 85.9005261,59.5393868 85.9005261,59.4345803 C85.9005261,59.3297739 85.9854745,59.2442739 86.0897294,59.2442739 C86.1950874,59.2442739 86.2800358,59.3297739 86.2800358,59.4345803" id="Fill-89" fill="#FEFEFE"></path>
                <path d="M86.2800358,59.4345803 C86.2800358,59.5393868 86.1950874,59.6248868 86.0897294,59.6248868 C85.9854745,59.6248868 85.9005261,59.5393868 85.9005261,59.4345803 C85.9005261,59.3297739 85.9854745,59.2442739 86.0897294,59.2442739 C86.1950874,59.2442739 86.2800358,59.3297739 86.2800358,59.4345803 Z" id="Stroke-91" stroke="#E5BC93" stroke-width="0.25"></path>
                <path d="M105.57893,69.6997103 C105.57893,71.6441458 104.002421,73.2217587 102.056882,73.2217587 C100.111895,73.2217587 98.5348335,71.6441458 98.5348335,69.6997103 C98.5348335,67.7547232 100.111895,66.1771103 102.056882,66.1771103 C104.002421,66.1771103 105.57893,67.7547232 105.57893,69.6997103" id="Fill-93" fill="#FBF5E3"></path>
                <path d="M105.57893,69.6997103 C105.57893,71.6441458 104.002421,73.2217587 102.056882,73.2217587 C100.111895,73.2217587 98.5348335,71.6441458 98.5348335,69.6997103 C98.5348335,67.7547232 100.111895,66.1771103 102.056882,66.1771103 C104.002421,66.1771103 105.57893,67.7547232 105.57893,69.6997103 Z" id="Stroke-95" stroke="#F8E9D3" stroke-width="0.5"></path>
                <path d="M104.393845,69.6997103 C104.393845,70.9899329 103.347987,72.035791 102.057213,72.035791 C100.76699,72.035791 99.7205806,70.9899329 99.7205806,69.6997103 C99.7205806,68.4089361 100.76699,67.3630781 102.057213,67.3630781 C103.347987,67.3630781 104.393845,68.4089361 104.393845,69.6997103" id="Fill-97" fill="#FBEEC7"></path>
                <path d="M104.393845,69.6997103 C104.393845,70.9899329 103.347987,72.035791 102.057213,72.035791 C100.76699,72.035791 99.7205806,70.9899329 99.7205806,69.6997103 C99.7205806,68.4089361 100.76699,67.3630781 102.057213,67.3630781 C103.347987,67.3630781 104.393845,68.4089361 104.393845,69.6997103 Z" id="Stroke-99" stroke="#F9DDB0" stroke-width="0.5"></path>
                <path d="M103.226467,69.6997103 C103.226467,70.3450974 102.702986,70.8685781 102.057047,70.8685781 C101.411109,70.8685781 100.88818,70.3450974 100.88818,69.6997103 C100.88818,69.0537716 101.411109,68.530291 102.057047,68.530291 C102.702986,68.530291 103.226467,69.0537716 103.226467,69.6997103" id="Fill-101" fill="#FDE7A8"></path>
                <path d="M103.226467,69.6997103 C103.226467,70.3450974 102.702986,70.8685781 102.057047,70.8685781 C101.411109,70.8685781 100.88818,70.3450974 100.88818,69.6997103 C100.88818,69.0537716 101.411109,68.530291 102.057047,68.530291 C102.702986,68.530291 103.226467,69.0537716 103.226467,69.6997103 Z" id="Stroke-103" stroke="#FACB81" stroke-width="0.5"></path>
                <path d="M102.247188,69.6997103 C102.247188,69.8039652 102.16224,69.8894652 102.056882,69.8894652 C101.952075,69.8894652 101.867679,69.8039652 101.867679,69.6997103 C101.867679,69.5949039 101.952075,69.5094039 102.056882,69.5094039 C102.16224,69.5094039 102.247188,69.5949039 102.247188,69.6997103" id="Fill-105" fill="#FEFEFE"></path>
                <path d="M102.247188,69.6997103 C102.247188,69.8039652 102.16224,69.8894652 102.056882,69.8894652 C101.952075,69.8894652 101.867679,69.8039652 101.867679,69.6997103 C101.867679,69.5949039 101.952075,69.5094039 102.056882,69.5094039 C102.16224,69.5094039 102.247188,69.5949039 102.247188,69.6997103 Z" id="Stroke-107" stroke="#E5BC93" stroke-width="0.25"></path>
                <path d="M124.669922,69.5984342 C124.669922,71.5434213 123.093412,73.1210342 121.147874,73.1210342 C119.202886,73.1210342 117.625825,71.5434213 117.625825,69.5984342 C117.625825,67.6534471 119.202886,66.0763858 121.147874,66.0763858 C123.093412,66.0763858 124.669922,67.6534471 124.669922,69.5984342" id="Fill-109" fill="#FBF5E3"></path>
                <path d="M124.669922,69.5984342 C124.669922,71.5434213 123.093412,73.1210342 121.147874,73.1210342 C119.202886,73.1210342 117.625825,71.5434213 117.625825,69.5984342 C117.625825,67.6534471 119.202886,66.0763858 121.147874,66.0763858 C123.093412,66.0763858 124.669922,67.6534471 124.669922,69.5984342 Z" id="Stroke-111" stroke="#F8E9D3" stroke-width="0.5"></path>
                <path d="M123.484782,69.5984342 C123.484782,70.8892084 122.438924,71.9350665 121.148149,71.9350665 C119.857927,71.9350665 118.811517,70.8892084 118.811517,69.5984342 C118.811517,68.3082116 119.857927,67.2623535 121.148149,67.2623535 C122.438924,67.2623535 123.484782,68.3082116 123.484782,69.5984342" id="Fill-113" fill="#FBEEC7"></path>
                <path d="M123.484782,69.5984342 C123.484782,70.8892084 122.438924,71.9350665 121.148149,71.9350665 C119.857927,71.9350665 118.811517,70.8892084 118.811517,69.5984342 C118.811517,68.3082116 119.857927,67.2623535 121.148149,67.2623535 C122.438924,67.2623535 123.484782,68.3082116 123.484782,69.5984342 Z" id="Stroke-115" stroke="#F9DDB0" stroke-width="0.5"></path>
                <path d="M122.317458,69.5984342 C122.317458,70.2443729 121.793978,70.7678535 121.148039,70.7678535 C120.5021,70.7678535 119.97862,70.2443729 119.97862,69.5984342 C119.97862,68.9524955 120.5021,68.4295665 121.148039,68.4295665 C121.793978,68.4295665 122.317458,68.9524955 122.317458,69.5984342" id="Fill-117" fill="#FDE7A8"></path>
                <path d="M122.317458,69.5984342 C122.317458,70.2443729 121.793978,70.7678535 121.148039,70.7678535 C120.5021,70.7678535 119.97862,70.2443729 119.97862,69.5984342 C119.97862,68.9524955 120.5021,68.4295665 121.148039,68.4295665 C121.793978,68.4295665 122.317458,68.9524955 122.317458,69.5984342 Z" id="Stroke-119" stroke="#FACB81" stroke-width="0.5"></path>
                <path d="M121.338125,69.5984342 C121.338125,69.7032406 121.253176,69.7887406 121.147818,69.7887406 C121.043012,69.7887406 120.958064,69.7032406 120.958064,69.5984342 C120.958064,69.4941794 121.043012,69.4086794 121.147818,69.4086794 C121.253176,69.4086794 121.338125,69.4941794 121.338125,69.5984342" id="Fill-121" fill="#FEFEFE"></path>
                <path d="M121.338125,69.5984342 C121.338125,69.7032406 121.253176,69.7887406 121.147818,69.7887406 C121.043012,69.7887406 120.958064,69.7032406 120.958064,69.5984342 C120.958064,69.4941794 121.043012,69.4086794 121.147818,69.4086794 C121.253176,69.4086794 121.338125,69.4941794 121.338125,69.5984342 Z" id="Stroke-123" stroke="#E5BC93" stroke-width="0.25"></path>
                <path d="M140.48516,59.3257471 C140.48516,61.2707342 138.908651,62.8483471 136.963112,62.8483471 C135.018125,62.8483471 133.441064,61.2707342 133.441064,59.3257471 C133.441064,57.3813116 135.018125,55.8036987 136.963112,55.8036987 C138.908651,55.8036987 140.48516,57.3813116 140.48516,59.3257471" id="Fill-125" fill="#FBF5E3"></path>
                <path d="M140.48516,59.3257471 C140.48516,61.2707342 138.908651,62.8483471 136.963112,62.8483471 C135.018125,62.8483471 133.441064,61.2707342 133.441064,59.3257471 C133.441064,57.3813116 135.018125,55.8036987 136.963112,55.8036987 C138.908651,55.8036987 140.48516,57.3813116 140.48516,59.3257471 Z" id="Stroke-127" stroke="#F8E9D3" stroke-width="0.5"></path>
                <path d="M139.299468,59.3257471 C139.299468,60.6165213 138.25361,61.6623794 136.963388,61.6623794 C135.672614,61.6623794 134.626204,60.6165213 134.626204,59.3257471 C134.626204,58.0355245 135.672614,56.9896665 136.963388,56.9896665 C138.25361,56.9896665 139.299468,58.0355245 139.299468,59.3257471" id="Fill-129" fill="#FBEEC7"></path>
                <path d="M139.299468,59.3257471 C139.299468,60.6165213 138.25361,61.6623794 136.963388,61.6623794 C135.672614,61.6623794 134.626204,60.6165213 134.626204,59.3257471 C134.626204,58.0355245 135.672614,56.9896665 136.963388,56.9896665 C138.25361,56.9896665 139.299468,58.0355245 139.299468,59.3257471 Z" id="Stroke-131" stroke="#F9DDB0" stroke-width="0.5"></path>
                <path d="M138.132145,59.3257471 C138.132145,59.9716858 137.609216,60.4951665 136.963277,60.4951665 C136.317339,60.4951665 135.793858,59.9716858 135.793858,59.3257471 C135.793858,58.68036 136.317339,58.1568794 136.963277,58.1568794 C137.609216,58.1568794 138.132145,58.68036 138.132145,59.3257471" id="Fill-133" fill="#FDE7A8"></path>
                <path d="M138.132145,59.3257471 C138.132145,59.9716858 137.609216,60.4951665 136.963277,60.4951665 C136.317339,60.4951665 135.793858,59.9716858 135.793858,59.3257471 C135.793858,58.68036 136.317339,58.1568794 136.963277,58.1568794 C137.609216,58.1568794 138.132145,58.68036 138.132145,59.3257471 Z" id="Stroke-135" stroke="#FACB81" stroke-width="0.5"></path>
                <path d="M137.152812,59.3257471 C137.152812,59.4305535 137.068415,59.5160535 136.963057,59.5160535 C136.85825,59.5160535 136.773302,59.4305535 136.773302,59.3257471 C136.773302,59.2214923 136.85825,59.1359923 136.963057,59.1359923 C137.068415,59.1359923 137.152812,59.2214923 137.152812,59.3257471" id="Fill-137" fill="#FEFEFE"></path>
                <path d="M137.152812,59.3257471 C137.152812,59.4305535 137.068415,59.5160535 136.963057,59.5160535 C136.85825,59.5160535 136.773302,59.4305535 136.773302,59.3257471 C136.773302,59.2214923 136.85825,59.1359923 136.963057,59.1359923 C137.068415,59.1359923 137.152812,59.2214923 137.152812,59.3257471 Z" id="Stroke-139" stroke="#E5BC93" stroke-width="0.25"></path>
                <path d="M148.408087,41.8109342 C148.408087,43.7559213 146.831577,45.3329826 144.886038,45.3329826 C142.941051,45.3329826 141.36399,43.7559213 141.36399,41.8109342 C141.36399,39.8659471 142.941051,38.2883342 144.886038,38.2883342 C146.831577,38.2883342 148.408087,39.8659471 148.408087,41.8109342" id="Fill-141" fill="#FBF5E3"></path>
                <path d="M148.408087,41.8109342 C148.408087,43.7559213 146.831577,45.3329826 144.886038,45.3329826 C142.941051,45.3329826 141.36399,43.7559213 141.36399,41.8109342 C141.36399,39.8659471 142.941051,38.2883342 144.886038,38.2883342 C146.831577,38.2883342 148.408087,39.8659471 148.408087,41.8109342 Z" id="Stroke-143" stroke="#F8E9D3" stroke-width="0.5"></path>
                <path d="M147.22245,41.8109342 C147.22245,43.1011568 146.176592,44.1470148 144.886369,44.1470148 C143.595595,44.1470148 142.549185,43.1011568 142.549185,41.8109342 C142.549185,40.52016 143.595595,39.4743019 144.886369,39.4743019 C146.176592,39.4743019 147.22245,40.52016 147.22245,41.8109342" id="Fill-145" fill="#FBEEC7"></path>
                <path d="M147.22245,41.8109342 C147.22245,43.1011568 146.176592,44.1470148 144.886369,44.1470148 C143.595595,44.1470148 142.549185,43.1011568 142.549185,41.8109342 C142.549185,40.52016 143.595595,39.4743019 144.886369,39.4743019 C146.176592,39.4743019 147.22245,40.52016 147.22245,41.8109342 Z" id="Stroke-147" stroke="#F9DDB0" stroke-width="0.5"></path>
                <path d="M146.055127,41.8109342 C146.055127,42.4563213 145.532198,42.9798019 144.886259,42.9798019 C144.24032,42.9798019 143.71684,42.4563213 143.71684,41.8109342 C143.71684,41.1649955 144.24032,40.6415148 144.886259,40.6415148 C145.532198,40.6415148 146.055127,41.1649955 146.055127,41.8109342" id="Fill-149" fill="#FDE7A8"></path>
                <path d="M146.055127,41.8109342 C146.055127,42.4563213 145.532198,42.9798019 144.886259,42.9798019 C144.24032,42.9798019 143.71684,42.4563213 143.71684,41.8109342 C143.71684,41.1649955 144.24032,40.6415148 144.886259,40.6415148 C145.532198,40.6415148 146.055127,41.1649955 146.055127,41.8109342 Z" id="Stroke-151" stroke="#FACB81" stroke-width="0.5"></path>
                <path d="M145.075793,41.8109342 C145.075793,41.915189 144.991396,42.000689 144.886038,42.000689 C144.781232,42.000689 144.696284,41.915189 144.696284,41.8109342 C144.696284,41.7061277 144.781232,41.6206277 144.886038,41.6206277 C144.991396,41.6206277 145.075793,41.7061277 145.075793,41.8109342" id="Fill-153" fill="#FEFEFE"></path>
                <path d="M145.075793,41.8109342 C145.075793,41.915189 144.991396,42.000689 144.886038,42.000689 C144.781232,42.000689 144.696284,41.915189 144.696284,41.8109342 C144.696284,41.7061277 144.781232,41.6206277 144.886038,41.6206277 C144.991396,41.6206277 145.075793,41.7061277 145.075793,41.8109342 Z" id="Stroke-155" stroke="#E5BC93" stroke-width="0.25"></path>
                <path d="M145.523979,23.1756852 C145.523979,25.1206723 143.947469,26.6977335 142.00193,26.6977335 C140.056943,26.6977335 138.47933,25.1206723 138.47933,23.1756852 C138.47933,21.2306981 140.056943,19.6536368 142.00193,19.6536368 C143.947469,19.6536368 145.523979,21.2306981 145.523979,23.1756852" id="Fill-157" fill="#FBF5E3"></path>
                <path d="M145.523979,23.1756852 C145.523979,25.1206723 143.947469,26.6977335 142.00193,26.6977335 C140.056943,26.6977335 138.47933,25.1206723 138.47933,23.1756852 C138.47933,21.2306981 140.056943,19.6536368 142.00193,19.6536368 C143.947469,19.6536368 145.523979,21.2306981 145.523979,23.1756852 Z" id="Stroke-159" stroke="#F8E9D3" stroke-width="0.5"></path>
                <path d="M144.338342,23.1756852 C144.338342,24.4659077 143.292484,25.5117658 142.002261,25.5117658 C140.711487,25.5117658 139.665077,24.4659077 139.665077,23.1756852 C139.665077,21.884911 140.711487,20.8390529 142.002261,20.8390529 C143.292484,20.8390529 144.338342,21.884911 144.338342,23.1756852" id="Fill-161" fill="#FBEEC7"></path>
                <path d="M144.338342,23.1756852 C144.338342,24.4659077 143.292484,25.5117658 142.002261,25.5117658 C140.711487,25.5117658 139.665077,24.4659077 139.665077,23.1756852 C139.665077,21.884911 140.711487,20.8390529 142.002261,20.8390529 C143.292484,20.8390529 144.338342,21.884911 144.338342,23.1756852 Z" id="Stroke-163" stroke="#F9DDB0" stroke-width="0.5"></path>
                <path d="M143.171019,23.1756852 C143.171019,23.8216239 142.647538,24.3451045 142.002151,24.3451045 C141.356212,24.3451045 140.832732,23.8216239 140.832732,23.1756852 C140.832732,22.5297465 141.356212,22.0062658 142.002151,22.0062658 C142.647538,22.0062658 143.171019,22.5297465 143.171019,23.1756852" id="Fill-165" fill="#FDE7A8"></path>
                <path d="M143.171019,23.1756852 C143.171019,23.8216239 142.647538,24.3451045 142.002151,24.3451045 C141.356212,24.3451045 140.832732,23.8216239 140.832732,23.1756852 C140.832732,22.5297465 141.356212,22.0062658 142.002151,22.0062658 C142.647538,22.0062658 143.171019,22.5297465 143.171019,23.1756852 Z" id="Stroke-167" stroke="#FACB81" stroke-width="0.5"></path>
                <path d="M142.191685,23.1756852 C142.191685,23.2804916 142.106737,23.3659916 142.00193,23.3659916 C141.897124,23.3659916 141.812175,23.2804916 141.812175,23.1756852 C141.812175,23.0708787 141.897124,22.9853787 142.00193,22.9853787 C142.106737,22.9853787 142.191685,23.0708787 142.191685,23.1756852" id="Fill-169" fill="#FEFEFE"></path>
                <path d="M142.191685,23.1756852 C142.191685,23.2804916 142.106737,23.3659916 142.00193,23.3659916 C141.897124,23.3659916 141.812175,23.2804916 141.812175,23.1756852 C141.812175,23.0708787 141.897124,22.9853787 142.00193,22.9853787 C142.106737,22.9853787 142.191685,23.0708787 142.191685,23.1756852 Z" id="Stroke-171" stroke="#E5BC93" stroke-width="0.25"></path>
                <path d="M133.007661,8.92995097 C133.007661,10.8749381 131.431152,12.4519994 129.485613,12.4519994 C127.540626,12.4519994 125.963013,10.8749381 125.963013,8.92995097 C125.963013,6.98496387 127.540626,5.40790258 129.485613,5.40790258 C131.431152,5.40790258 133.007661,6.98496387 133.007661,8.92995097" id="Fill-173" fill="#FBF5E3"></path>
                <path d="M133.007661,8.92995097 C133.007661,10.8749381 131.431152,12.4519994 129.485613,12.4519994 C127.540626,12.4519994 125.963013,10.8749381 125.963013,8.92995097 C125.963013,6.98496387 127.540626,5.40790258 129.485613,5.40790258 C131.431152,5.40790258 133.007661,6.98496387 133.007661,8.92995097 Z" id="Stroke-175" stroke="#F8E9D3" stroke-width="0.5"></path>
                <path d="M131.822025,8.92995097 C131.822025,10.2201735 130.776166,11.2665832 129.485944,11.2665832 C128.19517,11.2665832 127.14876,10.2201735 127.14876,8.92995097 C127.14876,7.63972839 128.19517,6.59387032 129.485944,6.59387032 C130.776166,6.59387032 131.822025,7.63972839 131.822025,8.92995097" id="Fill-177" fill="#FBEEC7"></path>
                <path d="M131.822025,8.92995097 C131.822025,10.2201735 130.776166,11.2665832 129.485944,11.2665832 C128.19517,11.2665832 127.14876,10.2201735 127.14876,8.92995097 C127.14876,7.63972839 128.19517,6.59387032 129.485944,6.59387032 C130.776166,6.59387032 131.822025,7.63972839 131.822025,8.92995097 Z" id="Stroke-179" stroke="#F9DDB0" stroke-width="0.5"></path>
                <path d="M130.654701,8.92995097 C130.654701,9.57588968 130.131221,10.0993703 129.485834,10.0993703 C128.839895,10.0993703 128.316414,9.57588968 128.316414,8.92995097 C128.316414,8.28456387 128.839895,7.76053161 129.485834,7.76053161 C130.131221,7.76053161 130.654701,8.28456387 130.654701,8.92995097" id="Fill-181" fill="#FDE7A8"></path>
                <path d="M130.654701,8.92995097 C130.654701,9.57588968 130.131221,10.0993703 129.485834,10.0993703 C128.839895,10.0993703 128.316414,9.57588968 128.316414,8.92995097 C128.316414,8.28456387 128.839895,7.76053161 129.485834,7.76053161 C130.131221,7.76053161 130.654701,8.28456387 130.654701,8.92995097 Z" id="Stroke-183" stroke="#FACB81" stroke-width="0.5"></path>
                <path d="M129.675368,8.92995097 C129.675368,9.03475742 129.590419,9.12025742 129.485613,9.12025742 C129.380806,9.12025742 129.295858,9.03475742 129.295858,8.92995097 C129.295858,8.82514452 129.380806,8.74019613 129.485613,8.74019613 C129.590419,8.74019613 129.675368,8.82514452 129.675368,8.92995097" id="Fill-185" fill="#FEFEFE"></path>
                <path d="M129.675368,8.92995097 C129.675368,9.03475742 129.590419,9.12025742 129.485613,9.12025742 C129.380806,9.12025742 129.295858,9.03475742 129.295858,8.92995097 C129.295858,8.82514452 129.380806,8.74019613 129.485613,8.74019613 C129.590419,8.74019613 129.675368,8.82514452 129.675368,8.92995097 Z" id="Stroke-187" stroke="#E5BC93" stroke-width="0.25"></path>
                <path d="M114.635311,37.3312858 C114.635311,39.0892761 113.210495,40.5140923 111.453056,40.5140923 C109.695617,40.5140923 108.270801,39.0892761 108.270801,37.3312858 C108.270801,35.5732955 109.695617,34.1484794 111.453056,34.1484794 C113.210495,34.1484794 114.635311,35.5732955 114.635311,37.3312858 Z" id="Stroke-189" stroke="#9B9B9B"></path>
                <path d="M132.132307,37.1906797 C132.132307,48.5340474 122.874036,57.7299861 111.453442,57.7299861 C100.032297,57.7299861 90.7734745,48.5340474 90.7734745,37.1906797 C90.7734745,25.8478635 100.032297,16.6519248 111.453442,16.6519248 C122.874036,16.6519248 132.132307,25.8478635 132.132307,37.1906797 Z" id="Stroke-191" stroke="#E6E6E6"></path>
                <polygon id="Stroke-195" stroke="#E6E6E6" points="105.631168 17.7546542 111.296784 4.39734774 117.020871 17.5786897 129.086852 9.50528323 126.679613 23.6260219 141.29901 23.4500574 131.729078 34.3118671 144.117752 41.7393348 130.232 45.5553929 136.426062 58.7659703 122.54031 54.4507026 120.926291 68.8648994 111.453442 57.8442252 102.284533 68.8648994 100.493997 54.6266671 86.6082455 58.9419348 92.8607777 46.0248155 78.8575326 42.0620284 91.0410068 34.4878316 81.4120519 23.8019865 95.8262487 24.0667606 93.4184584 9.68179935"></polygon>
                <path d="M141.532894,50.7439742 L114.608668,38.5538806" id="Stroke-201" stroke="#E6E6E6"></path>
                <path d="M136.384691,58.7321013 L113.958316,39.3826239" id="Stroke-203" stroke="#E6E6E6"></path>
                <path d="M129.62473,65.1165794 L113.484536,39.8560181" id="Stroke-205" stroke="#E6E6E6"></path>
                <path d="M120.879183,68.825459 L112.47867,40.2110913" id="Stroke-207" stroke="#E6E6E6"></path>
                <path d="M111.531937,70.2114968 L111.531937,40.4475677" id="Stroke-209" stroke="#E6E6E6"></path>
                <path d="M102.393145,68.6573826 L110.5857,40.4473471" id="Stroke-211" stroke="#E6E6E6"></path>
                <path d="M93.6023661,65.1230884 L109.756902,40.0335271" id="Stroke-213" stroke="#E6E6E6"></path>
                <path d="M86.8057781,58.8032042 L108.928214,39.5011655" id="Stroke-215" stroke="#E6E6E6"></path>
                <path d="M81.5315313,51.1582355 L108.395631,38.6724774" id="Stroke-217" stroke="#E6E6E6"></path>
                <path d="M78.6021358,42.1045577 L108.139352,37.8438997" id="Stroke-219" stroke="#E6E6E6"></path>
                <path d="M78.5924274,32.5972887 L108.139021,36.8579468" id="Stroke-221" stroke="#E6E6E6"></path>
                <path d="M81.1765132,23.701979 L108.41571,35.9897081" id="Stroke-223" stroke="#E6E6E6"></path>
                <path d="M86.28489,15.6346403 L109.006929,35.2014532" id="Stroke-225" stroke="#E6E6E6"></path>
                <path d="M93.2769697,9.47075226 L109.599195,34.4908103" id="Stroke-227" stroke="#E6E6E6"></path>
                <path d="M110.466938,34.0964623 L101.985338,5.53560097" id="Stroke-229" stroke="#E6E6E6"></path>
                <path d="M111.25613,4.39177645 L111.453056,34.1485345" id="Stroke-231" stroke="#E6E6E6"></path>
                <path d="M112.123928,34.1756739 L120.644692,5.53593194" id="Stroke-233" stroke="#E6E6E6"></path>
                <path d="M129.224479,9.29329839 L113.070495,34.4909758" id="Stroke-235" stroke="#E6E6E6"></path>
                <path d="M113.741091,35.0035897 L136.266204,15.4770445" id="Stroke-237" stroke="#E6E6E6"></path>
                <path d="M141.532894,23.3470161 L114.253981,35.8322226" id="Stroke-239" stroke="#E6E6E6"></path>
                <path d="M114.569559,36.7791213 L144.195585,32.4004181" id="Stroke-241" stroke="#E6E6E6"></path>
                <path d="M143.934341,41.7888697 L114.635421,37.3312858" id="Stroke-243" stroke="#E6E6E6"></path>
                <path d="M164.288526,65.9612642 L164.288526,81.9288029" id="Stroke-247" stroke="#9B9B9B" stroke-linecap="round"></path>
                <path d="M164.288526,72.5784677 C164.288526,72.5784677 166.950058,72.5784677 166.950058,69.9169355" id="Stroke-249" stroke="#9B9B9B" stroke-linecap="round"></path>
                <path d="M24.1330645,65.5911871 C24.1330645,68.0282129 22.1571871,70.0040903 19.7201613,70.0040903 C17.2831355,70.0040903 15.3072581,68.0282129 15.3072581,65.5911871 C15.3072581,63.1541613 17.2831355,61.1782839 19.7201613,61.1782839 C22.1571871,61.1782839 24.1330645,63.1541613 24.1330645,65.5911871" id="Fill-253" fill="#FFFFFF"></path>
                <g id="Group-18" transform="translate(0.000000, 55.000000)" stroke="#9B9B9B" stroke-linecap="round">
                    <path d="M14.4798387,6.45409032 C14.4798387,8.58662581 12.7510839,10.3153806 10.6185484,10.3153806 C8.4860129,10.3153806 6.75725806,8.58662581 6.75725806,6.45409032 C6.75725806,4.32155484 8.4860129,0.386348387 10.6185484,0.386348387 C12.7510839,0.386348387 14.4798387,4.32155484 14.4798387,6.45409032 Z" id="Stroke-9" fill="#FFFFFF"></path>
                    <path d="M10.6185484,6.45409032 L10.6185484,14.7282839" id="Stroke-11"></path>
                    <path d="M170.8632,12.8262123 C170.8632,16.3736348 167.987642,19.2491929 164.440219,19.2491929 C160.8939,19.2491929 158.018342,16.3736348 158.018342,12.8262123 C158.018342,9.27878968 160.8939,2.73335097 164.440219,2.73335097 C167.987642,2.73335097 170.8632,9.27878968 170.8632,12.8262123 Z" id="Stroke-245"></path>
                    <path d="M164.360732,15.4205029 C164.360732,15.4205029 161.699751,15.4205029 161.699751,12.7595223" id="Stroke-251"></path>
                    <path d="M24.1330645,10.5911871 C24.1330645,13.0282129 22.1571871,15.0040903 19.7201613,15.0040903 C17.2831355,15.0040903 15.3072581,13.0282129 15.3072581,10.5911871 C15.3072581,8.15416129 17.2831355,6.17828387 19.7201613,6.17828387 C22.1571871,6.17828387 24.1330645,8.15416129 24.1330645,10.5911871 Z" id="Stroke-255"></path>
                    <path d="M19.7201613,11.6944129 L19.7201613,21.3476387" id="Stroke-257"></path>
                    <path d="M7.9983871,24.1057032 C7.9983871,26.2382387 6.26963226,27.9669935 4.13709677,27.9669935 C2.00456129,27.9669935 0.275806452,26.2382387 0.275806452,24.1057032 C0.275806452,21.9731677 2.00456129,18.0379613 4.13709677,18.0379613 C6.26963226,18.0379613 7.9983871,21.9731677 7.9983871,24.1057032 Z" id="Stroke-259" fill="#FFFFFF"></path>
                    <path d="M4.13709677,24.1057032 L4.13709677,32.3798968" id="Stroke-261"></path>
                </g>
                <polygon id="Fill-197" fill="#9B9B9B" points="92.2416474 75.7146629 88.7504894 75.7146629 108.75087 39.3231048 109.579393 39.9745597"></polygon>
                <polygon id="Fill-199" fill="#9B9B9B" points="130.58575 75.7146629 134.076908 75.7146629 114.076527 39.3231048 113.248005 39.9745597"></polygon>
            </g>
            <path d="M17,114 L17,130" id="Stroke-247-Copy" stroke="#9B9B9B" stroke-linecap="round" transform="translate(17.500000, 122.000000) scale(-1, 1) translate(-17.500000, -122.000000) "></path>
            <path d="M15,121 C15,121 18,121 18,118" id="Stroke-249-Copy" stroke="#9B9B9B" stroke-linecap="round" transform="translate(16.500000, 119.500000) scale(-1, 1) translate(-16.500000, -119.500000) "></path>
            <path d="M167,113.5 C167,115.985125 164.985125,118 162.5,118 C160.014875,118 158,115.985125 158,113.5 C158,111.014875 160.014875,109 162.5,109 C164.985125,109 167,111.014875 167,113.5" id="Fill-253-Copy" fill="#FFFFFF" transform="translate(162.500000, 113.500000) scale(-1, 1) translate(-162.500000, -113.500000) "></path>
            <path d="M175,109.111111 C175,111.258889 173.209143,113 171,113 C168.790857,113 167,111.258889 167,109.111111 C167,106.963333 168.790857,103 171,103 C173.209143,103 175,106.963333 175,109.111111 Z" id="Stroke-9-Copy" stroke="#9B9B9B" fill="#FFFFFF" stroke-linecap="round" transform="translate(171.000000, 108.000000) scale(-1, 1) translate(-171.000000, -108.000000) "></path>
            <path d="M171,109 L171,117" id="Stroke-11-Copy" stroke="#9B9B9B" stroke-linecap="round" transform="translate(171.500000, 113.000000) scale(-1, 1) translate(-171.500000, -113.000000) "></path>
            <path d="M24,116.388731 C24,120.040146 21.0897106,123 17.4994417,123 C13.9102894,123 11,120.040146 11,116.388731 C11,112.737317 13.9102894,106 17.4994417,106 C21.0897106,106 24,112.737317 24,116.388731 Z" id="Stroke-245-Copy" stroke="#9B9B9B" stroke-linecap="round" transform="translate(17.500000, 114.500000) scale(-1, 1) translate(-17.500000, -114.500000) "></path>
            <path d="M21,119 C21,119 18,119 18,116" id="Stroke-251-Copy" stroke="#9B9B9B" stroke-linecap="round" transform="translate(19.500000, 117.500000) scale(-1, 1) translate(-19.500000, -117.500000) "></path>
            <path d="M167,113.5 C167,115.985125 164.985125,118 162.5,118 C160.014875,118 158,115.985125 158,113.5 C158,111.014875 160.014875,109 162.5,109 C164.985125,109 167,111.014875 167,113.5 Z" id="Stroke-255-Copy" stroke="#9B9B9B" stroke-linecap="round" transform="translate(162.500000, 113.500000) scale(-1, 1) translate(-162.500000, -113.500000) "></path>
            <path d="M162,115 L162,125" id="Stroke-257-Copy" stroke="#9B9B9B" stroke-linecap="round" transform="translate(162.500000, 120.000000) scale(-1, 1) translate(-162.500000, -120.000000) "></path>
            <path d="M182,127.111111 C182,129.258889 180.209143,131 178,131 C175.790857,131 174,129.258889 174,127.111111 C174,124.963333 175.790857,121 178,121 C180.209143,121 182,124.963333 182,127.111111 Z" id="Stroke-259-Copy" stroke="#9B9B9B" fill="#FFFFFF" stroke-linecap="round" transform="translate(178.000000, 126.000000) scale(-1, 1) translate(-178.000000, -126.000000) "></path>
            <path d="M177,127 L177,135" id="Stroke-261-Copy" stroke="#9B9B9B" stroke-linecap="round" transform="translate(177.500000, 131.000000) scale(-1, 1) translate(-177.500000, -131.000000) "></path>
            <g id="cloud_2_3" opacity="0.5" transform="translate(24.000000, 2.000000)" stroke="#C0C0C0" stroke-linecap="round">
                <g id="Group-6-Copy">
                    <path d="M6,7.73742006 C6,6.2254133 7.11968261,5 8.5,5 C9.88086842,5 11,6.2254133 11,7.73742006 C11,8.67804996 10.5668944,9.5076626 9.90731761,10" id="Stroke-4"></path>
                    <path d="M23,5.59973551 C23.4176884,5.22283447 23.9373192,5 24.4999311,5 C25.8808376,5 27,6.3429579 27,8" id="Stroke-6"></path>
                    <path d="M10,4.7095317 C10.694154,2.00798073 13.3005764,0 16.4095513,0 C20.0494442,0 23,2.75319982 23,6.14884807 C23,6.43765999 22.978592,6.72172866 22.9373816,7" id="Stroke-8"></path>
                    <path d="M0,6 L6,6" id="Stroke-10"></path>
                </g>
            </g>
            <g id="Page-1" transform="translate(131.500000, 96.000000) scale(-1, 1) translate(-131.500000, -96.000000) translate(122.000000, 79.000000)">
                <mask id="mask-3" fill="white">
                    <use xlink:href="#path-2"></use>
                </mask>
                <g id="Clip-2"></g>
                <path d="M11.0120915,21.31703 L11.0120915,16.6578046 C12.5302705,16.5300516 14.943053,15.4779685 14.943053,12.129016 C14.943053,11.8321782 14.706433,11.5922388 14.4137018,11.5922388 C14.1209707,11.5922388 13.8843507,11.8321782 13.8843507,12.129016 C13.8843507,14.9272351 11.8230574,15.4683065 11.0120915,15.572978 L11.0120915,9.42204891 C11.0120915,9.12521116 10.7754715,8.88527178 10.4827404,8.88527178 C10.1900092,8.88527178 9.95338924,9.12521116 9.95338924,9.42204891 L9.95338924,18.7968614 C8.97091355,18.6433432 6.97155434,18.0088726 6.97155434,15.3781279 C6.97155434,15.0812902 6.73493439,14.8413508 6.44220322,14.8413508 C6.14947204,14.8413508 5.91285209,15.0812902 5.91285209,15.3781279 C5.91285209,18.6025481 8.31663556,19.6954263 9.95338924,19.8870558 L9.95338924,21.3154197 C9.07149026,21.2531536 8.21076533,21.0438105 7.39027108,20.6734343 C7.25158109,20.6106313 7.10442147,20.580035 6.95990862,20.580035 C6.65553172,20.580035 6.35750703,20.7131558 6.1510601,20.9600733 C5.60265233,21.6170885 4.79327445,21.9933692 3.93096147,21.9933692 C2.3471429,21.9933692 1.05870225,20.7255016 1.05870225,19.1683112 C1.05870225,18.1081764 1.65633968,17.1462718 2.61922938,16.6578046 C3.05012119,16.4393363 3.28144764,15.9530162 3.18087092,15.4747478 C3.0771181,14.9793025 3.02418299,14.4731217 3.02418299,13.9696247 C3.02418299,11.1241692 4.71545984,8.50362325 7.33415986,7.2937276 C7.73064386,7.1106866 7.97626278,6.7000521 7.95244198,6.25828452 C7.94503106,6.12247991 7.93762015,5.98613852 7.93762015,5.8481868 C7.93762015,3.25984749 9.25358705,1.07355425 10.8104087,1.07355425 C12.3677597,1.07355425 13.6826679,3.25984749 13.6826679,5.8481868 C13.6826679,6.05269888 13.6710222,6.27277751 13.6472014,6.54009252 C13.6085588,6.96253611 13.8197699,7.36833962 14.1844928,7.57499882 C16.501992,8.89010278 17.9412977,11.3399536 17.9412977,13.9696247 C17.9412977,17.8596486 14.8779428,21.0464944 11.0120915,21.31703 M19,13.9696247 C19,10.8289418 17.2669044,8.09352552 14.7016688,6.63832273 C14.7249603,6.37905938 14.7413702,6.11711214 14.7413702,5.8481868 C14.7413702,2.61839883 12.981807,0 10.8104087,0 C8.63953974,0 6.87891789,2.61839883 6.87891789,5.8481868 C6.87891789,6.00653605 6.88685816,6.16220142 6.89532778,6.31733001 C3.98654334,7.66088316 1.96548073,10.5777301 1.96548073,13.9696247 C1.96548073,14.5622267 2.02794417,15.1403356 2.14546012,15.6980471 C0.872900008,16.3432532 0,17.6535262 0,19.1683112 C0,21.3213243 1.75956315,23.0669235 3.93096147,23.0669235 C5.14952776,23.0669235 6.23787368,22.5167269 6.95937927,21.6535893 C7.88097958,22.0701284 8.89151088,22.32134 9.95338924,22.3879004 L9.95338924,33.4632229 C9.95338924,33.7600606 10.1900092,34 10.4827404,34 C10.7754715,34 11.0120915,33.7600606 11.0120915,33.4632229 L11.0120915,22.3905843 C15.4681693,22.1179015 19,18.4581551 19,13.9696247" id="Fill-1" fill="#9B9B9B" mask="url(#mask-3)"></path>
            </g>
            <g id="Tree" transform="translate(485.000000, 79.000000)">
                <g id="Page-1-Copy-9" transform="translate(9.500000, 17.000000) scale(-1, 1) translate(-9.500000, -17.000000) ">
                    <mask id="mask-5" fill="white">
                        <use xlink:href="#path-4"></use>
                    </mask>
                    <g id="Clip-2"></g>
                    <path d="M11.0120915,21.31703 L11.0120915,16.6578046 C12.5302705,16.5300516 14.943053,15.4779685 14.943053,12.129016 C14.943053,11.8321782 14.706433,11.5922388 14.4137018,11.5922388 C14.1209707,11.5922388 13.8843507,11.8321782 13.8843507,12.129016 C13.8843507,14.9272351 11.8230574,15.4683065 11.0120915,15.572978 L11.0120915,9.42204891 C11.0120915,9.12521116 10.7754715,8.88527178 10.4827404,8.88527178 C10.1900092,8.88527178 9.95338924,9.12521116 9.95338924,9.42204891 L9.95338924,18.7968614 C8.97091355,18.6433432 6.97155434,18.0088726 6.97155434,15.3781279 C6.97155434,15.0812902 6.73493439,14.8413508 6.44220322,14.8413508 C6.14947204,14.8413508 5.91285209,15.0812902 5.91285209,15.3781279 C5.91285209,18.6025481 8.31663556,19.6954263 9.95338924,19.8870558 L9.95338924,21.3154197 C9.07149026,21.2531536 8.21076533,21.0438105 7.39027108,20.6734343 C7.25158109,20.6106313 7.10442147,20.580035 6.95990862,20.580035 C6.65553172,20.580035 6.35750703,20.7131558 6.1510601,20.9600733 C5.60265233,21.6170885 4.79327445,21.9933692 3.93096147,21.9933692 C2.3471429,21.9933692 1.05870225,20.7255016 1.05870225,19.1683112 C1.05870225,18.1081764 1.65633968,17.1462718 2.61922938,16.6578046 C3.05012119,16.4393363 3.28144764,15.9530162 3.18087092,15.4747478 C3.0771181,14.9793025 3.02418299,14.4731217 3.02418299,13.9696247 C3.02418299,11.1241692 4.71545984,8.50362325 7.33415986,7.2937276 C7.73064386,7.1106866 7.97626278,6.7000521 7.95244198,6.25828452 C7.94503106,6.12247991 7.93762015,5.98613852 7.93762015,5.8481868 C7.93762015,3.25984749 9.25358705,1.07355425 10.8104087,1.07355425 C12.3677597,1.07355425 13.6826679,3.25984749 13.6826679,5.8481868 C13.6826679,6.05269888 13.6710222,6.27277751 13.6472014,6.54009252 C13.6085588,6.96253611 13.8197699,7.36833962 14.1844928,7.57499882 C16.501992,8.89010278 17.9412977,11.3399536 17.9412977,13.9696247 C17.9412977,17.8596486 14.8779428,21.0464944 11.0120915,21.31703 M19,13.9696247 C19,10.8289418 17.2669044,8.09352552 14.7016688,6.63832273 C14.7249603,6.37905938 14.7413702,6.11711214 14.7413702,5.8481868 C14.7413702,2.61839883 12.981807,0 10.8104087,0 C8.63953974,0 6.87891789,2.61839883 6.87891789,5.8481868 C6.87891789,6.00653605 6.88685816,6.16220142 6.89532778,6.31733001 C3.98654334,7.66088316 1.96548073,10.5777301 1.96548073,13.9696247 C1.96548073,14.5622267 2.02794417,15.1403356 2.14546012,15.6980471 C0.872900008,16.3432532 0,17.6535262 0,19.1683112 C0,21.3213243 1.75956315,23.0669235 3.93096147,23.0669235 C5.14952776,23.0669235 6.23787368,22.5167269 6.95937927,21.6535893 C7.88097958,22.0701284 8.89151088,22.32134 9.95338924,22.3879004 L9.95338924,33.4632229 C9.95338924,33.7600606 10.1900092,34 10.4827404,34 C10.7754715,34 11.0120915,33.7600606 11.0120915,33.4632229 L11.0120915,22.3905843 C15.4681693,22.1179015 19,18.4581551 19,13.9696247" id="Fill-1" fill="#9B9B9B" mask="url(#mask-5)"></path>
                </g>
            </g>
        </g>
    </g>
</svg>